<svg width="610" height="610" viewBox="0 0 610 610" fill="none" xmlns="http://www.w3.org/2000/svg">
  <rect width="610" height="610" rx="32" fill="#DDECF0"/>
  <rect x="30" y="30" width="550" height="550" rx="28" fill="#F3FBFD"/>
  <circle cx="458" cy="118" r="46" fill="#8EC9E8"/>
  <path d="M398 121C398 90.0721 423.072 65 454 65C484.928 65 510 90.0721 510 121H398Z" fill="#5B8FB7"/>
  <path d="M112 166L154 220" stroke="#77A8C6" stroke-width="10" stroke-linecap="round"/>
  <path d="M180 144L222 198" stroke="#77A8C6" stroke-width="10" stroke-linecap="round"/>
  <path d="M248 166L290 220" stroke="#77A8C6" stroke-width="10" stroke-linecap="round"/>
  <path d="M316 144L358 198" stroke="#77A8C6" stroke-width="10" stroke-linecap="round"/>
  <path d="M384 166L426 220" stroke="#77A8C6" stroke-width="10" stroke-linecap="round"/>
  <path d="M452 144L494 198" stroke="#77A8C6" stroke-width="10" stroke-linecap="round"/>
  <rect x="96" y="332" width="110" height="122" rx="18" fill="#386A7F"/>
  <rect x="222" y="290" width="144" height="164" rx="18" fill="#285564"/>
  <rect x="382" y="348" width="130" height="106" rx="18" fill="#3B7188"/>
  <path d="M122 332L151 301L180 332H122Z" fill="#4C869B"/>
  <path d="M250 290L294 246L338 290H250Z" fill="#3F7089"/>
  <path d="M407 348L447 306L487 348H407Z" fill="#4D8CA6"/>
  <rect x="278" y="330" width="32" height="124" rx="12" fill="#B9D8E6"/>
  <path d="M30 444C74 426 120 417 168 417C236 417 291 433 353 453C409 471 467 486 580 486V580H30V444Z" fill="#63B8D8"/>
  <path d="M30 478C84 462 138 456 194 460C254 465 310 483 366 501C430 522 492 533 580 528V580H30V478Z" fill="#3E94BD"/>
  <circle cx="306" cy="220" r="48" stroke="#FFB84E" stroke-width="10"/>
  <circle cx="306" cy="220" r="82" stroke="#FFB84E" stroke-opacity="0.42" stroke-width="10"/>
  <circle cx="306" cy="220" r="116" stroke="#FFB84E" stroke-opacity="0.22" stroke-width="10"/>
</svg>
