<svg width="305" height="66" viewBox="0 0 305 66" fill="none" xmlns="http://www.w3.org/2000/svg">
<g clip-path="url(#clip0_177_1294)">
<path d="M36.7323 54.9573C22.4666 54.9573 10.8984 43.2684 10.8984 28.8537C10.8984 14.4389 22.4666 2.75 36.7323 2.75C50.998 2.75 62.5662 14.4389 62.5662 28.8537C62.5297 43.2561 50.9859 54.9327 36.7323 54.9573ZM36.7323 4.6163C23.4873 4.6163 12.7576 15.4703 12.7576 28.8537C12.7576 42.237 23.4994 53.0787 36.7445 53.0787C49.9895 53.0787 60.7192 42.237 60.7192 28.8537C60.7192 15.4703 49.9773 4.6163 36.7323 4.6163Z" fill="#61A60E"/>
<path d="M36.7336 58.0518C20.876 58.0763 7.98336 45.1105 7.95906 29.0873C7.92261 13.0519 20.7666 0.0245914 36.6242 3.4824e-05C52.4818 -0.0245218 65.3744 12.9414 65.3987 28.9645C65.4352 44.9877 52.6276 58.0027 36.77 58.0395C36.7579 58.0395 36.7457 58.0395 36.7336 58.0395V58.0518ZM36.7336 0.773567C21.3256 0.773567 8.83396 13.3957 8.83396 28.9645C8.83396 44.5334 21.3256 57.1678 36.7457 57.1678C52.1658 57.1678 64.6575 44.5457 64.6575 28.9645C64.6453 13.3957 52.1537 0.785845 36.7457 0.761289L36.7336 0.773567Z" fill="#007934"/>
<path d="M36.7351 51.1022C24.6323 51.1022 14.8262 41.1936 14.8262 28.9644C14.8262 16.7352 24.6323 6.82666 36.7351 6.82666C48.8379 6.82666 58.6441 16.7352 58.6441 28.9644C58.6441 41.1936 48.8379 51.1022 36.7351 51.1022ZM36.7351 9.79801C26.1999 9.79801 17.6574 18.4296 17.6574 29.0749C17.6574 39.7202 26.1999 48.3518 36.7351 48.3518C47.2704 48.3518 55.8128 39.7202 55.8128 29.0749C55.8128 29.0381 55.8128 29.0013 55.8128 28.9644C55.7399 18.3683 47.2218 9.81029 36.7351 9.79801Z" fill="#B4BD00"/>
<path d="M18.8572 63.9955C9.52497 63.9955 1.9668 56.3584 1.9668 46.9286C1.9668 37.4989 9.52497 29.8618 18.8572 29.8618C28.1895 29.8618 35.7477 37.4989 35.7477 46.9286C35.7477 56.3461 28.1774 63.9832 18.8572 63.9955ZM18.8572 31.1756C10.254 31.1756 3.267 38.2356 3.27915 46.9286C3.27915 55.6217 10.2662 62.6817 18.8694 62.6694C27.4726 62.6694 34.4596 55.6094 34.4475 46.9164C34.4475 38.2233 27.4726 31.1756 18.8572 31.1756Z" fill="#61A60E"/>
<path d="M18.7496 65.861C8.39661 65.861 0 57.3767 0 46.9156C0 36.4545 8.39661 27.9702 18.7496 27.9702C29.1026 27.9702 37.4992 36.4545 37.4992 46.9156C37.4628 57.3644 29.0904 65.8242 18.7496 65.861ZM18.7496 28.6332C8.7247 28.6578 0.619721 36.8965 0.656175 47.0261C0.69263 57.1557 8.83406 65.3453 18.859 65.3085C28.8839 65.2839 36.9888 57.0452 36.9524 46.9156C36.9767 36.8474 28.9203 28.6578 18.944 28.6332C18.8833 28.6332 18.8104 28.6332 18.7496 28.6332Z" fill="#007934"/>
<path d="M18.8584 61.4537C10.9721 61.4537 4.58051 54.9953 4.56836 47.0267C4.56836 39.0581 10.96 32.5997 18.8462 32.5874C26.7325 32.5874 33.1241 39.0458 33.1363 47.0144C33.1363 54.9707 26.769 61.4291 18.8949 61.4414C18.8949 61.4414 18.8706 61.4414 18.8584 61.4414V61.4537ZM18.8584 34.4783C11.9929 34.4783 6.42752 40.1017 6.42752 47.039C6.42752 53.9762 11.9929 59.5996 18.8584 59.5996C25.7239 59.5996 31.2893 53.9762 31.2893 47.0512C31.2893 40.114 25.7361 34.5028 18.8706 34.4905L18.8584 34.4783Z" fill="#B4BD00"/>
<path d="M293.879 49.6777H302.167V47.7009H293.879V43.2929H303.042V41.3161H293.879V37.2397H290.939V41.3161H284.948C285.726 40.1988 286.346 38.971 286.795 37.6818H284.401C283.733 38.9342 282.846 40.0515 281.789 40.9846C281.679 41.0951 281.57 41.0951 281.57 41.2056C281.351 41.4512 281.23 41.7582 281.242 42.0897C281.218 42.7895 281.752 43.3789 282.445 43.4157H282.542H290.939V47.8236H282.542V49.8127H290.939V54.9942H279.383V56.9832H304.67V55.0064H293.879V49.7145V49.6777Z" fill="white"/>
<path d="M299.01 29.738H304.356V27.7612H292.035V24.9004H289.094V27.7612H276.773V29.738H282.119C282.605 31.2114 282.982 32.7217 283.213 34.2564H278.304C277.611 34.2196 277.016 34.7599 276.991 35.472V35.5825C276.991 35.914 276.991 35.5825 276.773 43.0723C276.554 52.1091 273.395 55.412 273.395 55.412V57.7203C275.132 56.9467 276.882 55.4119 278.522 50.4515C279.835 46.7066 279.944 38.2223 280.053 36.135H305.012V34.1582H297.928C298.147 32.7217 298.912 30.3028 299.022 29.7503L299.01 29.738ZM295.085 34.367H285.923C285.704 33.1514 285.266 30.9536 284.938 29.8485H296.057C295.838 30.8431 295.401 33.0409 295.073 34.367H295.085Z" fill="white"/>
<path d="M268.814 30.5116H264.561V24.9004H261.62V30.5238H258.57V32.5007H261.62C261.511 35.914 261.511 39.8799 261.402 43.4038C261.073 51.4461 258.242 55.5225 258.242 55.5225V57.8308C259.98 57.0572 261.292 55.7435 263.261 50.8935C264.354 47.9222 264.573 39.2169 264.573 32.5007H267.186C267.186 36.135 267.186 49.7885 266.639 53.1036C266.092 56.4188 262.386 56.075 262.386 56.075V57.7325C263.82 57.7694 265.241 57.622 266.639 57.2905C268.923 56.8485 269.251 55.5225 269.579 53.9877C270.236 50.2428 270.126 31.7394 270.126 31.7394C270.065 31.0518 269.494 30.5238 268.814 30.5238V30.5116Z" fill="white"/>
<path d="M225.639 33.5938V37.6701C232.395 45.3809 237.304 46.707 237.304 46.707V44.6197C232.723 42.2008 228.142 36.5774 225.639 33.606V33.5938Z" fill="white"/>
<path d="M236.866 26.2139H206.779V28.1907H220.51C219.963 30.278 216.913 38.8728 206.232 44.4962V46.6941C211.798 44.4349 216.658 40.7145 220.292 35.9014V57.8182H223.232V30.6095C223.56 29.836 223.888 28.9519 224.216 28.1907H236.866V26.2139Z" fill="white"/>
<path d="M110.419 44.7168H108.135L108.9 52.4276H111.075L110.419 44.7168Z" fill="white"/>
<path d="M118.378 52.4276L119.034 44.7168H116.859L116.094 52.4276H118.378Z" fill="white"/>
<path d="M115.11 42.9496H120.019V40.9728H115.11V36.4543H118.378V34.4775H108.9V36.4543H112.169V40.9728H107.26V42.9618H112.169V54.4175C108.9 54.749 107.26 54.749 107.26 54.749V56.9468C108.9 56.8363 119.909 55.3997 119.909 55.3997V53.6317C118.05 53.8527 116.422 54.0737 115 54.1842L115.11 42.9496Z" fill="white"/>
<path d="M113.688 28.0796C116.41 33.482 119.57 35.3483 120.007 35.5693V33.482C117.71 31.0632 116.034 28.1041 115.098 24.8872H112.267C111.343 28.1041 109.654 31.0632 107.357 33.482V35.5693C110.079 33.6785 112.254 31.1 113.676 28.0796H113.688Z" fill="white"/>
<path d="M130.808 34.4643H136.689V32.4875H130.808V24.8872H127.867V32.4875H125.364C125.826 30.7685 126.044 28.9882 126.02 27.1955H123.408C123.408 30.4124 122.666 33.5802 121.232 36.4534V38.9827C122.776 37.9022 123.954 36.3551 124.611 34.5748H127.879V41.07H121.232V43.0468H127.77C127.454 48.0563 125.133 52.7098 121.342 55.939V57.9281C124.963 55.8653 127.794 52.6484 129.41 48.7808C130.978 52.673 133.833 55.9022 137.479 57.9281V55.939C133.7 52.6975 131.379 48.0441 131.051 43.0468H137.588V40.9595H131.051C130.832 38.7617 130.832 36.5516 130.832 34.4643H130.808Z" fill="white"/>
<path d="M103.115 26.8772C103.14 26.1773 102.605 25.5879 101.912 25.5511C101.876 25.5511 101.852 25.5511 101.815 25.5511H80.0155C79.3228 25.5265 78.7396 26.0668 78.7031 26.7666V26.8649V55.8294C78.7031 56.5538 79.2985 57.1431 80.0155 57.1554H101.815C102.508 57.18 103.091 56.6397 103.127 55.9399C103.127 55.903 103.127 55.8785 103.127 55.8416V26.8772H103.115ZM100.065 55.0681H81.425V42.2864H100.065V55.0681ZM100.065 40.3096H81.425V27.5402H100.065V40.3219V40.3096Z" fill="white"/>
<path d="M182.912 28.3012C184.881 27.8592 186.4 27.5277 186.946 27.3067V24.7773C182.803 26.5331 176.047 27.4172 174.734 27.6382V29.394C176.472 29.2835 178.331 29.0625 179.972 28.8415V34.4526H174.406V36.4417H179.534C178.295 40.6286 176.569 44.6559 174.406 48.4499V50.8687C176.739 48.2289 178.623 45.2207 179.959 41.9424V57.806H182.912V41.7214C184.152 43.6982 185.573 45.5399 187.165 47.2343V44.8155C185.379 42.2494 183.982 39.4253 183.022 36.4417H187.165V34.4649H182.912V28.3012Z" fill="white"/>
<path d="M202.212 27.0979H190.656C189.939 27.0979 189.356 27.6995 189.344 28.4239V28.5344V55.6326C189.392 56.3448 189.951 56.9096 190.656 56.9587H202.212C202.929 56.9587 203.512 56.357 203.524 55.6326V28.4239V28.3134C203.5 27.6258 202.929 27.0856 202.249 27.0979C202.249 27.0979 202.224 27.0979 202.212 27.0979ZM200.572 54.8468H192.284V29.0747H200.572V54.8468Z" fill="white"/>
<path d="M250.281 28.3018C253.55 27.9702 254.097 27.9702 256.381 27.6387V25.4409C251.338 26.3495 246.235 26.9389 241.119 27.1967V28.9525C241.447 28.9525 244.169 28.9525 247.438 28.7315V30.5978H240.354V32.5746H247.438V34.5514H243.185C242.468 34.5514 241.885 35.153 241.872 35.8775V35.988V46.4491C241.921 47.1612 242.48 47.726 243.185 47.7751H247.438V49.8624H240.682V51.6305H247.438V54.7124C243.294 54.9334 240.354 54.9334 240.354 54.9334V57.0207C253.428 56.3577 257.244 55.8051 257.244 55.8051V54.0493C254.85 54.2703 252.444 54.3809 250.269 54.4914V51.6305H256.916V49.6537H250.269V47.5664H254.522C255.239 47.5664 255.822 46.9648 255.834 46.2403V35.767V35.6565C255.834 34.932 255.239 34.3427 254.522 34.3304H250.269V32.3536H257.244V30.3768H250.16L250.269 28.2895L250.281 28.3018ZM247.438 45.6019H244.607V42.078H247.438V45.6019ZM247.438 40.0889H244.607V36.5651H247.438V40.0889ZM253.003 45.6019H250.281V42.078H253.003V45.6019ZM253.003 36.5651V40.0889H250.281V36.5651H253.003Z" fill="white"/>
<path d="M141.383 55.8422V57.819C146.729 56.714 149.889 54.5162 152.173 50.2188H148.905C147.191 52.9936 144.506 54.995 141.383 55.8422Z" fill="white"/>
<path d="M162.745 50.2314H159.367C161.652 54.5288 164.92 56.8372 170.267 57.8317V55.8549C167.144 55.02 164.459 53.0063 162.745 50.2314Z" fill="white"/>
<path d="M152.717 30.4014H158.817V32.3904H152.717V30.4014Z" fill="white"/>
<path d="M157.954 34.2563H153.701C153.215 34.2809 152.802 34.6493 152.717 35.1404V44.4964C152.765 44.9999 153.191 45.3928 153.701 45.3805H158.063C158.537 45.3191 158.926 44.9753 159.048 44.4964V35.1404C158.926 34.6247 158.477 34.2686 157.954 34.2563ZM156.86 43.9439H154.795V35.5701H156.86V43.9439Z" fill="white"/>
<path d="M169.609 27.5403C169.634 26.8405 169.099 26.2511 168.406 26.2143C168.37 26.2143 168.346 26.2143 168.309 26.2143H163.947V28.1911H166.997V32.9305H163.947V34.9073H166.997V39.7572H163.947V41.7463H166.997V47.2593H162.744V27.5526C162.744 26.8282 162.148 26.2388 161.431 26.2265H150.313C149.62 26.202 149.037 26.7422 149.001 27.4421V27.5403V47.2593H144.748V41.7463H147.798V39.659H144.748V34.8091H147.798V32.9428H144.748V28.2033H147.798V26.116H143.435C142.743 26.0915 142.159 26.6317 142.123 27.3316V27.4298V47.2593H140.592V49.2483H171.116V47.2593H169.585V27.5403H169.609ZM160.35 47.247H151.188V28.0806H160.35V47.247Z" fill="white"/>
<path d="M78.5946 18.7248C79.591 18.025 80.4781 17.1655 81.2072 16.1955C82.3251 14.5502 83.0785 12.6594 83.3823 10.6826C83.5038 9.73713 83.5767 8.77943 83.601 7.82172C83.601 7.60071 83.5767 7.36742 83.4916 7.15869C85.3508 7.3797 85.5574 7.3797 85.5574 7.60071C85.5574 7.71121 85.448 7.82172 85.0105 7.93222V8.37424C85.0713 9.93359 85.448 11.4684 86.1042 12.8927C86.736 14.2064 87.6717 15.336 88.8261 16.1955C89.4701 16.7112 90.2113 17.0918 91.0012 17.3006V17.4111C90.345 17.5216 90.0169 17.8531 89.6888 18.8476C88.3279 17.9513 87.21 16.748 86.4201 15.3238C85.849 14.1205 85.4115 12.8681 85.1078 11.5789C84.9619 10.8913 84.889 10.1914 84.889 9.49157C84.8283 10.7317 84.6096 11.9472 84.2329 13.1259C83.6374 14.8817 82.5803 16.4411 81.1829 17.6444C80.4659 18.2583 79.6639 18.7371 78.789 19.0809L78.5703 18.7494L78.5946 18.7248Z" fill="white"/>
<path d="M95.7022 7.26855C96.1397 7.29311 96.5893 7.36678 97.0145 7.48956C97.452 7.71057 97.6707 7.82108 97.6707 8.15259C97.6707 8.31221 97.6343 8.45955 97.5614 8.59461C97.3062 9.49093 97.1968 10.4241 97.2333 11.3449C97.2333 11.8975 97.3426 12.1185 97.6707 12.1185C98.096 12.0571 98.5092 11.9097 98.8737 11.6765C99.2018 11.4677 99.5785 11.3572 99.9673 11.3449C100.405 11.3449 100.842 11.6765 100.842 12.008C100.842 12.1799 100.757 12.3395 100.624 12.45C100.514 12.5605 100.405 12.5605 99.9673 12.671C98.7765 12.8797 97.6343 13.2849 96.5893 13.8866C95.4956 14.4391 94.9488 15.1021 94.9488 15.8634C94.9488 16.7474 95.605 17.1894 97.0145 17.1894C98.0474 17.1403 99.0681 16.993 100.065 16.7474C100.235 16.6614 100.417 16.6246 100.611 16.6369C101.097 16.6614 101.511 17.0298 101.596 17.5209C101.596 17.7419 101.486 17.9629 101.268 17.9629C100.891 18.1348 100.478 18.2085 100.065 18.184C99.4934 18.2699 98.9102 18.3067 98.3269 18.2945C97.4763 18.319 96.6379 18.2085 95.8237 17.9629C94.9488 17.6683 94.3656 16.8088 94.402 15.8756C94.402 14.6601 95.3863 13.5673 97.452 12.3518H97.3426C97.0875 12.3518 96.8444 12.229 96.6865 12.0203C96.3584 11.6887 96.3584 11.3572 96.249 9.60143C96.249 9.01207 96.164 8.42271 96.0303 7.84563C95.9209 7.51412 95.5928 7.40362 95.046 7.29311H95.7022V7.26855Z" fill="white"/>
<path d="M114.781 9.46676C115.024 9.23347 115.255 8.97563 115.437 8.69322C115.875 9.02474 116.094 9.13524 116.531 9.46676C116.64 9.57726 116.75 9.57726 116.75 9.68777C116.75 9.74916 116.701 9.79827 116.64 9.79827C116.482 9.88422 116.325 9.99472 116.203 10.1298V17.509C116.13 17.8897 115.936 18.2335 115.656 18.5036C115.328 18.8351 115 18.8351 114.125 18.9456C114.016 18.3931 114.016 18.2826 113.688 18.0616C113.42 17.8897 113.129 17.7792 112.813 17.73C112.679 17.6687 112.533 17.6318 112.375 17.6195L111.938 17.509V17.288C112.412 17.2758 112.886 17.3126 113.36 17.3985C113.797 17.3985 114.125 17.509 114.453 17.509C114.672 17.509 114.672 17.3985 114.672 17.288V9.79827H106.931V18.6141C106.931 18.8351 106.822 18.8351 106.713 18.9456C106.433 19.0438 106.129 19.0807 105.838 19.0561C105.619 19.0561 105.619 18.9456 105.619 18.8351C105.729 17.3985 105.729 16.8583 105.729 13.2239C105.801 11.7505 105.765 10.2771 105.619 8.81601C106.19 9.06157 106.737 9.35625 107.26 9.70004H108.997C109.374 8.81601 109.666 7.89514 109.872 6.94971C111.294 7.28122 111.938 7.50223 111.938 7.61273C111.938 7.72324 111.829 7.83374 111.282 7.94425C110.626 8.71778 110.079 9.2703 109.641 9.70004H114.769V9.47904L114.781 9.46676ZM112.169 11.5541C112.387 11.2226 112.497 11.2226 112.716 10.891C113.153 11.2226 113.262 11.2226 113.7 11.5541C113.773 11.6277 113.809 11.7014 113.809 11.7751C113.809 11.8856 113.7 11.9961 113.481 12.1066V15.741C113.481 15.962 113.372 15.962 113.153 16.0725C112.934 16.0725 112.606 16.183 112.387 16.183C112.302 16.183 112.229 16.1339 112.169 16.0725V15.2989H109.556V16.0725C109.556 16.2935 109.447 16.2935 109.337 16.2935C109.228 16.2935 108.9 16.404 108.681 16.404C108.463 16.404 108.353 16.2935 108.353 16.183C108.353 15.1884 108.463 14.8569 108.463 14.2062V12.5609C108.463 12.0452 108.438 11.5295 108.353 11.0138C109.009 11.3453 109.228 11.3453 109.775 11.6768L112.169 11.5663V11.5541ZM109.666 14.9797H112.278V11.8979H109.666V14.9797Z" fill="white"/>
<path d="M119.692 9.35613C120.226 9.74904 120.882 9.94549 121.551 9.90865C122.292 9.85954 123.021 9.7122 123.726 9.46664C123.41 8.95095 123.045 8.47209 122.632 8.03008C122.28 7.77223 121.855 7.66173 121.429 7.69856C121.539 7.47755 121.648 7.36705 122.085 7.25654C122.328 7.15832 122.584 7.12148 122.851 7.14604C123.228 7.13376 123.604 7.20743 123.945 7.36705C124.054 7.47755 124.054 7.58806 124.163 7.91957C124.163 8.25108 124.273 8.36159 124.601 9.13512C125.281 8.95095 125.913 8.60716 126.46 8.14058C126.569 8.03008 126.679 8.03008 126.897 8.03008C127.444 8.03008 127.772 8.25109 127.772 8.47209C127.772 8.6931 127.663 8.80361 127.116 9.02462C126.46 9.35613 125.767 9.61398 125.05 9.79815C125.16 9.90865 125.597 10.7927 125.925 11.2347C126.448 11.0505 126.958 10.8295 127.456 10.5717C127.225 10.3261 126.97 10.0928 126.691 9.90865L126.8 9.79815C127.153 10.0314 127.578 10.1542 128.003 10.1297L128.222 10.0192H128.331C128.55 9.9946 128.744 10.1665 128.769 10.3875V10.4612C128.769 10.9032 128.113 11.3452 126.156 12.0082C126.484 12.6713 126.594 12.6713 126.703 13.0028C126.922 13.3097 127.104 13.6413 127.25 13.9973C127.456 14.2429 127.566 14.5621 127.578 14.8814C127.578 15.5444 127.359 15.9864 127.031 15.9864C126.922 15.9864 126.812 15.8759 126.594 15.7654C126.314 15.483 125.974 15.262 125.609 15.1024C124.929 14.7831 124.175 14.6358 123.434 14.6604C122.122 14.6604 121.15 15.2129 121.15 15.9864C121.15 16.8704 122.025 17.202 123.544 17.202C124.054 17.1774 124.564 17.1037 125.075 16.981C125.184 16.981 125.293 16.8704 125.403 16.8704C125.84 16.8704 126.496 17.3125 126.496 17.7545C126.496 17.9755 126.387 18.086 126.168 18.1965C125.561 18.3438 124.941 18.4175 124.309 18.4175C123.373 18.4543 122.438 18.2579 121.587 17.865C120.882 17.558 120.421 16.8704 120.384 16.1092C120.384 14.7831 121.806 14.0219 123.872 14.0219C124.71 14.0464 125.561 14.1569 126.375 14.3534C126.168 13.6044 125.84 12.9046 125.391 12.2661C124.479 12.5853 123.519 12.7695 122.559 12.8186C121.612 12.9414 120.712 12.3889 120.384 11.4926L120.494 11.3821C120.882 11.8977 121.49 12.1801 122.134 12.1556C123.13 12.0942 124.127 11.91 125.075 11.6031C124.82 11.0996 124.528 10.6208 124.2 10.1665C123.434 10.4489 122.62 10.5962 121.806 10.6085C120.931 10.5962 120.105 10.1419 119.631 9.39297H119.728L119.692 9.35613Z" fill="white"/>
<path d="M131.137 13.2114C132.498 12.2046 133.701 11.0258 134.734 9.6875C135.414 8.81574 135.961 7.85804 136.374 6.82666C136.702 6.93716 137.03 6.93716 137.249 7.04767C138.233 7.26868 138.452 7.26868 138.452 7.48969C138.452 7.60019 138.233 7.7107 137.905 7.7107C138.537 8.81574 139.485 9.69978 140.627 10.24C141.66 10.8908 142.814 11.3328 144.005 11.5661V11.7871C143.458 11.8976 143.13 12.2291 142.802 13.1131C140.591 11.9713 138.816 10.105 137.784 7.8212C136.969 9.15954 135.937 10.3628 134.734 11.3451C133.761 12.18 132.656 12.8553 131.465 13.3219L131.137 13.2114ZM134.624 18.6138C134.624 18.9453 134.515 18.9453 133.749 18.9453H133.531C133.373 18.9699 133.227 18.8594 133.202 18.6998C133.202 18.6752 133.202 18.6384 133.202 18.6138C133.312 15.974 133.312 15.532 133.312 14.5374C133.336 14.0954 133.3 13.6411 133.202 13.2114C133.859 13.5429 134.077 13.6534 134.624 13.9849H139.643C139.886 13.7148 140.104 13.4201 140.299 13.1009C140.736 13.4324 140.846 13.5429 141.392 13.9849C141.465 14.0586 141.502 14.1322 141.502 14.2059C141.502 14.3164 141.283 14.4269 141.064 14.5374C141.064 16.2932 141.064 16.8457 141.174 18.6138C141.174 18.8348 141.064 18.8348 140.846 18.9453C140.736 18.9453 140.299 19.0558 140.08 19.0558C139.861 19.0558 139.752 18.9453 139.752 18.8348V18.2946H134.515V18.6261H134.612L134.624 18.6138ZM134.405 11.6766C134.721 11.7625 135.049 11.7994 135.39 11.7871H138.002C138.257 11.431 138.549 11.0995 138.877 10.7925C139.339 11.1241 139.776 11.4924 140.19 11.8976L140.299 12.0081C140.299 12.1186 140.19 12.1186 140.08 12.1186H135.28C134.989 12.1186 134.697 12.1554 134.405 12.2291C134.515 12.1186 134.405 11.6766 134.405 11.6766ZM134.624 17.8403H139.861V14.2059H134.624V17.8403Z" fill="white"/>
<path d="M150.435 12.4496C149.888 13.8862 149.779 14.1072 149.56 14.7579C149.402 15.1386 149.329 15.556 149.341 15.9735C149.341 16.1945 149.366 16.4278 149.451 16.6365C149.451 16.7225 149.499 16.7961 149.56 16.8575C149.572 17.1399 149.366 17.3855 149.074 17.4101C149.05 17.4101 149.038 17.4101 149.013 17.4101C148.333 17.2382 147.737 16.8084 147.373 16.1945C146.656 14.9298 146.316 13.4687 146.389 12.0076V10.7921C146.486 9.98169 146.206 9.15904 145.623 8.59424C145.988 8.61879 146.34 8.77841 146.607 9.03626C147.203 9.38005 147.616 9.99396 147.701 10.6938C147.701 10.878 147.664 11.0745 147.592 11.2463C147.409 11.8848 147.336 12.5601 147.373 13.2232C147.373 13.8616 147.482 14.5001 147.701 15.0895C147.81 15.421 147.92 15.642 148.248 15.7525C148.564 15.2982 148.855 14.8193 149.123 14.3159C149.451 13.7634 149.56 13.4319 150.216 12.4496H150.423H150.435ZM153.157 10.0185C154.165 10.1781 155.065 10.7307 155.66 11.5656C156.219 12.3268 156.523 13.26 156.535 14.2054C156.535 15.0895 156.098 15.5315 155.551 15.5315C155.381 15.5315 155.223 15.4455 155.113 15.3105C154.785 15.0895 154.566 14.979 153.473 14.979H153.145L153.035 14.7579C153.667 14.6106 154.287 14.4264 154.882 14.2054C155.101 14.0949 155.211 13.9844 155.211 13.7634C155.174 13.1249 155.016 12.4865 154.773 11.8971C154.433 11.1113 153.813 10.4851 153.023 10.129L153.133 10.0185H153.157Z" fill="white"/>
<path d="M158.381 15.7534C159.377 16.0358 160.325 16.441 161.212 16.969C161.625 17.2268 161.88 17.6934 161.868 18.1845C161.868 18.737 161.54 19.2896 161.212 19.2896C161.103 19.2896 160.993 19.1791 160.884 19.0686L160.228 18.074C159.717 17.19 159.013 16.4287 158.162 15.8762C158.369 15.8762 158.369 15.7657 158.369 15.7657L158.381 15.7534Z" fill="white"/>
<path d="M172.779 13.2114C172.33 13.6043 171.856 13.9726 171.357 14.3164L171.248 14.2059C171.856 13.592 172.378 12.8921 172.779 12.1186C173.241 11.3205 173.605 10.4733 173.873 9.58928C175.185 10.0313 175.61 10.1418 175.61 10.2523C175.61 10.3628 175.392 10.4733 175.064 10.4733C174.723 11.1241 174.274 11.7134 173.751 12.2291C174.298 12.3396 174.407 12.3396 174.407 12.4501C174.407 12.5606 174.298 12.5606 174.079 12.6711V15.6425C174.019 16.6002 174.055 17.5579 174.189 18.5033C174.189 18.6138 174.189 18.7243 174.079 18.7243C173.97 18.8348 173.642 18.8348 173.423 18.8348H173.204C173.046 18.8594 172.901 18.7489 172.876 18.5893C172.876 18.5647 172.876 18.5402 172.876 18.5033L172.767 13.2114H172.779ZM171.357 10.461C172.014 9.82256 172.56 9.07359 172.998 8.26322C173.314 7.83348 173.533 7.35463 173.654 6.82666C173.946 6.91261 174.237 7.02311 174.529 7.15817C175.185 7.37918 175.513 7.48969 175.513 7.60019C175.513 7.7107 175.294 7.8212 174.857 7.8212C173.946 8.99992 172.791 9.98218 171.479 10.682L171.37 10.461H171.357ZM175.61 14.2059C175.319 14.2059 175.027 14.2428 174.736 14.3164L174.626 13.8744C174.942 13.9726 175.27 14.0095 175.61 13.9849H176.704V13.1009C176.728 12.7325 176.692 12.3519 176.595 11.9958C178.235 12.1063 178.332 12.2168 178.332 12.3273C178.332 12.4378 178.223 12.5483 177.895 12.6589V13.9849H178.551C178.879 13.5429 178.988 13.4324 179.207 13.1009C179.645 13.5429 179.863 13.6534 180.301 14.0954C180.301 14.1568 180.349 14.2059 180.41 14.2059C180.41 14.2673 180.362 14.3164 180.301 14.3164H178.016V16.2932C179.219 16.0722 179.657 15.9617 180.52 15.8512V16.0722C178.855 16.8212 177.141 17.4351 175.392 17.9385C175.319 18.3069 175.246 18.491 175.173 18.491C174.954 18.491 174.954 18.27 174.517 16.7352H174.736C175.173 16.7352 175.829 16.6247 176.801 16.5142V14.2059H175.598H175.61ZM178.551 11.4556C178.831 11.21 179.049 10.9153 179.207 10.5715C179.645 11.0136 179.754 11.0136 180.301 11.5661L180.41 11.6766C180.41 11.7871 180.301 11.7871 180.191 11.7871H175.501C175.209 11.7871 174.918 11.8239 174.626 11.8976L174.517 11.4556C174.833 11.5415 175.173 11.5784 175.501 11.5661H176.704V9.36827H175.72C175.501 9.35599 175.27 9.39282 175.064 9.47877L174.954 9.03675C175.234 9.1227 175.537 9.15954 175.829 9.14726H176.813V8.15272C176.813 7.78437 176.789 7.41602 176.704 7.04767C176.984 7.13362 177.287 7.17045 177.579 7.15817C178.344 7.26868 178.563 7.26868 178.563 7.37918C178.563 7.48969 178.454 7.60019 178.016 7.7107V9.03675H178.673C178.916 8.76663 179.134 8.47195 179.329 8.15272C179.718 8.41056 180.082 8.70524 180.422 9.03675L180.532 9.14726C180.532 9.25776 180.422 9.25776 180.313 9.25776H178.029V11.3451H178.685L178.575 11.4556H178.551ZM182.367 15.532V17.7298C182.367 18.1718 182.257 18.2823 181.929 18.6138C181.504 18.8717 181.018 19.0313 180.507 19.0558C180.507 18.5033 180.398 18.3928 180.07 18.1718C179.645 17.914 179.159 17.7543 178.648 17.7298V17.5088C179.414 17.5947 180.167 17.6316 180.933 17.6193C181.054 17.6193 181.139 17.5211 181.151 17.3983V11.2346H180.823C180.605 11.21 180.374 11.2346 180.167 11.3451L180.058 10.9031C180.337 11.0013 180.641 11.0381 180.933 11.0136H181.917C182.172 10.6575 182.464 10.326 182.792 10.019C183.254 10.3505 183.691 10.7189 184.104 11.1241C184.104 11.1855 184.153 11.2346 184.214 11.2346L184.104 11.3451H182.683L182.354 15.532H182.367ZM179.973 8.15272C180.289 8.25094 180.617 8.28778 180.957 8.26322H181.613C181.868 7.90715 182.16 7.57564 182.488 7.26868C183.035 7.7107 183.144 7.8212 183.691 8.26322L183.8 8.37373C183.8 8.48423 183.691 8.48423 183.582 8.48423H180.969C180.714 8.47195 180.447 8.50879 180.204 8.59473L179.985 8.15272H179.973Z" fill="white"/>
<path d="M186.84 9.13474C187.29 9.62588 187.934 9.85916 188.578 9.79777C189.015 9.77322 189.465 9.69955 189.89 9.57676C190.121 9.13474 190.267 8.64361 190.328 8.1402C190.328 7.69818 190 7.47717 189.343 7.25617C189.538 7.13338 189.769 7.05971 190 7.03516C190.461 7.03516 190.911 7.14566 191.312 7.36667C191.64 7.47717 191.859 7.69818 191.859 7.91919C191.859 8.0297 191.749 8.1402 191.64 8.36121C191.397 8.66817 191.178 8.99968 190.984 9.35575C191.652 9.19614 192.284 8.90146 192.831 8.47172C192.916 8.38577 193.037 8.34893 193.159 8.36121C193.706 8.36121 194.143 8.58222 194.143 8.91374C194.143 9.24525 193.925 9.35575 193.05 9.57676C192.199 9.85916 191.324 10.0802 190.437 10.2398C190.182 10.5467 189.963 10.8783 189.781 11.2343L189.125 12.2289C189.684 11.8728 190.316 11.6764 190.972 11.6764C191.689 11.6272 192.321 12.1675 192.393 12.8919C192.746 12.6832 193.11 12.499 193.487 12.3394C194.799 11.6764 195.225 11.3448 195.225 11.1238C195.225 10.9028 195.006 10.6818 194.569 10.4608C194.714 10.3871 194.824 10.3503 194.897 10.3503C195.553 10.3503 196.744 11.3448 196.744 12.0079C196.744 12.2289 196.634 12.3394 196.197 12.4499C194.957 12.7814 193.754 13.2234 192.6 13.7759V14.7705C192.649 15.1757 192.612 15.5931 192.491 15.986C192.381 16.1948 192.175 16.3175 191.944 16.3175C191.664 16.3298 191.421 16.1211 191.397 15.8264C191.397 15.8019 191.397 15.7896 191.397 15.765C191.397 15.5808 191.446 15.3967 191.506 15.2125C191.506 14.9178 191.543 14.6231 191.616 14.3285C191.093 14.5863 190.619 14.9178 190.194 15.323C189.866 15.5931 189.659 15.9983 189.647 16.4281C189.647 17.0911 190.303 17.4226 191.713 17.4226C192.369 17.398 193.025 17.3244 193.682 17.2016C193.925 17.1034 194.18 17.0297 194.447 16.9806C194.556 16.9806 194.666 16.8701 194.775 16.8701C195.03 16.8823 195.261 17.0051 195.431 17.2016C195.65 17.4226 195.869 17.6436 195.869 17.7541C195.857 17.9874 195.662 18.1838 195.431 18.1961C194.605 18.3557 193.767 18.4294 192.928 18.4171C191.92 18.4785 190.911 18.2944 189.987 17.8646C189.562 17.5577 189.319 17.0665 189.331 16.5386C189.404 15.8141 189.757 15.1388 190.316 14.6723C190.826 14.218 191.373 13.8128 191.956 13.4567C191.956 13.1129 191.883 12.7691 191.737 12.4622C191.616 12.2043 191.373 12.0324 191.081 12.0201C189.89 12.2166 188.845 12.941 188.25 13.9969C187.922 14.439 187.812 14.439 187.594 14.439C187.266 14.439 187.156 13.9969 187.156 13.4444C187.156 13.1129 187.266 13.0024 187.812 12.5604C188.627 11.8237 189.319 10.9765 189.878 10.0311C189.696 10.0433 189.514 10.0802 189.331 10.1416C187.91 10.4731 187.266 10.1416 186.828 9.14702L186.84 9.13474Z" fill="white"/>
<path d="M203.621 17.398C205.091 17.0542 206.476 16.3789 207.655 15.4212C208.542 14.6968 209.064 13.604 209.076 12.4498C209.101 11.2466 208.153 10.2643 206.962 10.2398C206.901 10.2398 206.841 10.2398 206.78 10.2398C204.836 10.4485 203.013 11.3448 201.652 12.7691C201.506 12.941 201.324 13.0515 201.105 13.1006C200.169 12.9164 199.428 12.1797 199.258 11.2343C199.246 11.1115 199.282 10.9887 199.368 10.9028C199.586 11.2343 199.586 11.3448 199.805 11.4553C200.024 11.5658 200.133 11.6763 200.352 11.6763C200.923 11.5781 201.47 11.3939 201.992 11.1238C203.511 10.3134 205.188 9.85912 206.901 9.79773C208.675 9.589 210.267 10.8659 210.474 12.6586C210.486 12.7691 210.498 12.8796 210.498 12.9901C210.498 14.7459 209.405 16.0719 207.448 16.956C206.257 17.4103 205.006 17.7172 203.742 17.84L203.633 17.398H203.621Z" fill="white"/>
<path d="M216.162 6.9375C216.673 6.98661 217.159 7.18307 217.584 7.49002C217.949 7.69875 218.192 8.0671 218.24 8.48456C218.24 8.81608 218.022 8.92658 217.365 9.3686C216.527 9.9334 215.725 10.5596 214.972 11.2472C214.315 11.7997 213.987 12.2417 213.987 12.5732C214.012 12.8556 214.17 13.1135 214.425 13.2363C214.534 13.3468 214.972 13.6783 215.518 14.2308C216.223 14.7956 216.879 15.4218 217.487 16.0971C217.936 16.5268 218.167 17.1285 218.143 17.7547C218.143 18.4177 217.815 18.8597 217.487 18.8597C217.268 18.8597 217.049 18.7492 216.94 18.1967C216.357 16.9443 215.579 15.7901 214.656 14.7833C213.999 13.8993 213.562 13.4573 213.453 13.2363C213.355 13.0766 213.319 12.8802 213.343 12.6837C213.343 12.3031 213.501 11.947 213.781 11.6892C214.291 11.0016 214.826 10.3386 215.409 9.70012C216.175 8.81608 216.503 8.26356 216.503 7.94432C216.478 7.7847 216.405 7.62508 216.284 7.5023C216.175 7.28129 216.065 7.28129 215.737 7.06028C216.065 7.06028 216.065 6.94978 216.174 6.94978L216.162 6.9375Z" fill="white"/>
<path d="M224.447 13.7638C225.504 13.0148 226.755 12.5973 228.043 12.5482C229.514 12.4009 230.826 13.4814 230.972 14.967C230.972 15.0407 230.972 15.1144 230.984 15.2003C230.984 17.1771 229.137 18.6137 226.622 18.6137C225.2 18.6137 224.337 18.0612 224.337 17.1771C224.337 16.5141 224.993 15.9616 225.978 15.9616C226.986 15.9247 227.91 16.5509 228.262 17.5086C229.161 17.1157 229.732 16.1949 229.684 15.2003C229.684 13.9848 229.028 13.334 227.715 13.334C226.755 13.3586 225.844 13.7146 225.103 14.3286C224.52 14.7583 223.997 15.274 223.584 15.8756C223.438 16.0966 223.329 16.2071 223.256 16.2071C223.171 16.2071 223.098 16.2563 223.037 16.3176C222.709 16.3176 222.49 15.7651 222.49 15.2126C222.49 14.9916 222.709 14.6601 223.146 14.3286C224.374 13.113 225.54 11.8238 226.634 10.4732C227.29 9.47863 227.837 8.71738 227.837 8.71738C227.74 8.76649 227.618 8.80333 227.509 8.82789C227.266 8.88928 227.047 8.99978 226.853 9.1594C226.196 9.49091 225.65 9.60142 225.115 9.93293C224.787 10.0434 224.677 10.1539 224.568 10.1539C224.24 10.1539 224.021 9.93293 223.693 9.60142C223.499 9.2699 223.389 8.88928 223.365 8.49637C223.365 8.33675 223.402 8.18941 223.474 8.05435C223.584 8.5946 224.033 8.99978 224.568 9.04889C225.236 8.99978 225.905 8.85244 226.537 8.60688C226.95 8.50865 227.351 8.36131 227.74 8.16486C227.958 7.94385 228.068 7.94385 228.177 7.94385C228.432 7.95613 228.663 8.07891 228.833 8.27536C229.271 8.71738 229.489 8.93839 229.489 9.1594C229.489 9.24535 229.441 9.31902 229.38 9.38041C229.283 9.46636 229.173 9.54003 229.052 9.60142C228.517 10.0066 228.007 10.4486 227.521 10.9275L225.552 12.9043C225.006 13.3463 224.677 13.5673 224.459 13.7883L224.447 13.7638ZM225.54 16.4159C225.103 16.4159 224.665 16.7474 224.665 17.0789C224.665 17.6314 225.212 17.9629 226.196 17.9629C226.488 17.9629 226.792 17.9384 227.071 17.8524C226.853 16.8579 226.306 16.4159 225.54 16.4159Z" fill="white"/>
<path d="M237.414 17.5093C237.414 18.4793 236.636 19.2774 235.664 19.2774C234.692 19.2774 233.914 18.4915 233.914 17.5093C233.914 16.5393 234.692 15.7412 235.664 15.7412C236.636 15.7412 237.414 16.527 237.414 17.5093ZM234.364 17.5093C234.364 18.2337 234.959 18.8231 235.676 18.8353C236.393 18.8353 236.988 18.246 236.988 17.5093C236.988 16.7726 236.405 16.1832 235.676 16.1832C234.959 16.1832 234.376 16.7849 234.364 17.5093Z" fill="white"/>
</g>
<defs>
<clipPath id="clip0_177_1294">
<rect width="305" height="65.8608" fill="white"/>
</clipPath>
</defs>
</svg>
