<svg width="206" height="44" viewBox="0 0 206 44" fill="none" xmlns="http://www.w3.org/2000/svg">
<g clip-path="url(#clip0_2244_1794)">
<path d="M24.7971 36.7158C15.167 36.7158 7.35791 28.9068 7.35791 19.2766C7.35791 9.6465 15.167 1.8374 24.7971 1.8374C34.4273 1.8374 42.2364 9.6465 42.2364 19.2766C42.2118 28.8986 34.4191 36.6994 24.7971 36.7158ZM24.7971 3.08423C15.856 3.08423 8.61294 10.3355 8.61294 19.2766C8.61294 28.2177 15.8642 35.4608 24.8053 35.4608C33.7464 35.4608 40.9895 28.2177 40.9895 19.2766C40.9895 10.3355 33.7382 3.08423 24.7971 3.08423Z" fill="#61A60E"/>
<path d="M24.7974 38.783C14.0927 38.7994 5.3895 30.1372 5.3731 19.4325C5.34849 8.71957 14.0189 0.0163679 24.7236 -3.77701e-05C35.4283 -0.0164434 44.1315 8.64575 44.1479 19.3504C44.1725 30.0551 35.5267 38.7501 24.822 38.7748C24.8138 38.7748 24.8056 38.7748 24.7974 38.7748V38.783ZM24.7974 0.516741C14.3962 0.516741 5.9637 8.94925 5.9637 19.3504C5.9637 29.7516 14.3962 38.1924 24.8056 38.1924C35.215 38.1924 43.6475 29.7598 43.6475 19.3504C43.6393 8.94925 35.2068 0.524944 24.8056 0.508538L24.7974 0.516741Z" fill="#007934"/>
<path d="M24.797 34.1402C16.627 34.1402 10.0073 27.5205 10.0073 19.3505C10.0073 11.1805 16.627 4.56079 24.797 4.56079C32.9671 4.56079 39.5867 11.1805 39.5867 19.3505C39.5867 27.5205 32.9671 34.1402 24.797 34.1402ZM24.797 6.54588C17.6852 6.54588 11.9186 12.3125 11.9186 19.4243C11.9186 26.5362 17.6852 32.3028 24.797 32.3028C31.9089 32.3028 37.6755 26.5362 37.6755 19.4243C37.6755 19.3997 37.6755 19.3751 37.6755 19.3505C37.6263 12.2715 31.8761 6.55408 24.797 6.54588Z" fill="#B4BD00"/>
<path d="M12.731 42.7532C6.43126 42.7532 1.3291 37.651 1.3291 31.3512C1.3291 25.0514 6.43126 19.9493 12.731 19.9493C19.0308 19.9493 24.133 25.0514 24.133 31.3512C24.133 37.6428 19.0226 42.745 12.731 42.7532ZM12.731 20.827C6.92343 20.827 2.2068 25.5436 2.21501 31.3512C2.21501 37.1588 6.93164 41.8755 12.7392 41.8673C18.5468 41.8673 23.2635 37.1506 23.2553 31.343C23.2553 25.5354 18.5469 20.827 12.731 20.827Z" fill="#61A60E"/>
<path d="M12.657 44C5.66816 44 0 38.3318 0 31.343C0 24.3542 5.66816 18.686 12.657 18.686C19.6458 18.686 25.3139 24.3542 25.3139 31.343C25.2893 38.3236 19.6376 43.9754 12.657 44ZM12.657 19.129C5.88964 19.1454 0.418345 24.6495 0.442953 31.4168C0.467562 38.1842 5.96346 43.6555 12.7308 43.6308C19.4981 43.6144 24.9694 38.1103 24.9448 31.343C24.9612 24.6167 19.5227 19.1454 12.7882 19.129C12.7472 19.129 12.698 19.129 12.657 19.129Z" fill="#007934"/>
<path d="M12.731 41.0552C7.40737 41.0552 3.09268 36.7405 3.08447 31.4169C3.08447 26.0932 7.39916 21.7785 12.7228 21.7703C18.0464 21.7703 22.3611 26.085 22.3693 31.4087C22.3693 36.7241 18.071 41.0388 12.7556 41.047C12.7556 41.047 12.7392 41.047 12.731 41.047V41.0552ZM12.731 23.0336C8.0964 23.0336 4.33951 26.7905 4.33951 31.4251C4.33951 36.0597 8.0964 39.8166 12.731 39.8166C17.3656 39.8166 21.1225 36.0597 21.1225 31.4333C21.1225 26.7987 17.3738 23.05 12.7392 23.0418L12.731 23.0336Z" fill="#B4BD00"/>
<path d="M198.386 33.1887H203.98V31.868H198.386V28.9232H204.571V27.6026H198.386V24.8792H196.4V27.6026H192.357C192.881 26.8561 193.3 26.0358 193.603 25.1745H191.987C191.536 26.0112 190.937 26.7577 190.224 27.3811C190.15 27.4549 190.076 27.4549 190.076 27.5287C189.928 27.6928 189.846 27.8979 189.855 28.1193C189.838 28.5869 190.199 28.9806 190.667 29.0052H190.732H196.4V31.9501H190.732V33.2789H196.4V36.7405H188.6V38.0694H205.67V36.7487H198.386V33.2133V33.1887Z" fill="black"/>
<path d="M201.847 19.8673H205.456V18.5466H197.139V16.6354H195.154V18.5466H186.836V19.8673H190.445C190.773 20.8516 191.028 21.8606 191.184 22.8859H187.87C187.402 22.8613 187 23.2223 186.984 23.698V23.7718C186.984 23.9933 186.984 23.7718 186.836 28.7756C186.688 34.8129 184.556 37.0194 184.556 37.0194V38.5615C185.729 38.0448 186.91 37.0194 188.017 33.7055C188.903 31.2036 188.977 25.5354 189.051 24.141H205.899V22.8203H201.117C201.265 21.8606 201.782 20.2446 201.855 19.8755L201.847 19.8673ZM199.198 22.9598H193.013C192.865 22.1477 192.57 20.6794 192.348 19.9411H199.854C199.706 20.6055 199.411 22.0739 199.19 22.9598H199.198Z" fill="black"/>
<path d="M181.463 20.3841H178.592V16.6354H176.607V20.3923H174.548V21.7129H176.607C176.533 23.9933 176.533 26.6428 176.459 28.997C176.238 34.3699 174.327 37.0932 174.327 37.0932V38.6354C175.5 38.1186 176.386 37.2409 177.714 34.0008C178.453 32.0157 178.6 26.1999 178.6 21.7129H180.364C180.364 24.141 180.364 33.2625 179.995 35.4773C179.626 37.692 177.124 37.4624 177.124 37.4624V38.5698C178.092 38.5944 179.051 38.4959 179.995 38.2745C181.537 37.9791 181.758 37.0932 181.98 36.0679C182.423 33.566 182.349 21.2044 182.349 21.2044C182.308 20.745 181.922 20.3923 181.463 20.3923V20.3841Z" fill="black"/>
<path d="M152.318 22.4429V25.1663C156.879 30.3177 160.193 31.2036 160.193 31.2036V29.8091C157.101 28.1931 154.008 24.4362 152.318 22.4511V22.4429Z" fill="black"/>
<path d="M159.898 17.5131H139.587V18.8337H148.857C148.487 20.2282 146.429 25.9702 139.218 29.7271V31.1954C142.975 29.6861 146.256 27.2006 148.709 23.9851V38.6272H150.694V20.4497C150.916 19.9329 151.137 19.3423 151.358 18.8337H159.898V17.5131Z" fill="black"/>
<path d="M74.5392 29.8748H72.9971L73.5139 35.0261H74.9822L74.5392 29.8748Z" fill="black"/>
<path d="M79.9122 35.0261L80.3552 29.8748H78.8869L78.3701 35.0261H79.9122Z" fill="black"/>
<path d="M77.7058 28.6935H81.0197V27.3729H77.7058V24.3542H79.9123V23.0336H73.5141V24.3542H75.7207V27.3729H72.4067V28.7017H75.7207V36.355C73.5141 36.5764 72.4067 36.5764 72.4067 36.5764V38.0448C73.5141 37.9709 80.9459 37.0112 80.9459 37.0112V35.83C79.6909 35.9776 78.5917 36.1253 77.6319 36.1991L77.7058 28.6935Z" fill="black"/>
<path d="M76.7458 18.7599C78.5833 22.3691 80.716 23.616 81.0113 23.7636V22.3691C79.461 20.7532 78.329 18.7763 77.6974 16.6271H75.7861C75.1627 18.7763 74.0225 20.7532 72.4722 22.3691V23.7636C74.3096 22.5004 75.7779 20.7778 76.7376 18.7599H76.7458Z" fill="black"/>
<path d="M88.3037 23.0253H92.2738V21.7047H88.3037V16.6271H86.3186V21.7047H84.6288C84.9405 20.5563 85.0882 19.3669 85.0718 18.1693H83.3082C83.3082 20.3184 82.8078 22.4347 81.8398 24.3542V26.044C82.8816 25.3221 83.6773 24.2886 84.1202 23.0992H86.3268V27.4385H81.8398V28.7591H86.253C86.0397 32.1059 84.473 35.2148 81.9137 37.3721V38.701C84.3581 37.3229 86.2694 35.1737 87.3604 32.5899C88.4185 35.1901 90.3462 37.3475 92.807 38.701V37.3721C90.256 35.2066 88.6892 32.0977 88.4677 28.7591H92.8809V27.3646H88.4677C88.3201 25.8963 88.3201 24.4198 88.3201 23.0253H88.3037Z" fill="black"/>
<path d="M69.6094 17.956C69.6258 17.4884 69.2649 17.0947 68.7973 17.0701C68.7727 17.0701 68.7563 17.0701 68.7317 17.0701H54.0158C53.5482 17.0537 53.1545 17.4146 53.1299 17.8821V17.9478V37.2982C53.1299 37.7822 53.5318 38.1759 54.0158 38.1842H68.7317C69.1992 38.2006 69.593 37.8396 69.6176 37.3721C69.6176 37.3475 69.6176 37.3311 69.6176 37.3064V17.956H69.6094ZM67.5505 36.7897H54.9673V28.2505H67.5505V36.7897ZM67.5505 26.9299H54.9673V18.3989H67.5505V26.9381V26.9299Z" fill="black"/>
<path d="M123.477 18.9076C124.806 18.6123 125.832 18.3908 126.201 18.2431V16.5533C123.404 17.7263 118.843 18.317 117.957 18.4646V19.6376C119.13 19.5638 120.385 19.4161 121.492 19.2685V23.0172H117.735V24.346H121.197C120.36 27.1432 119.195 29.8337 117.735 32.3684V33.9844C119.31 32.2208 120.582 30.2111 121.484 28.0209V38.619H123.477V27.8733C124.314 29.1939 125.274 30.4243 126.348 31.5563V29.9404C125.143 28.226 124.199 26.3393 123.551 24.346H126.348V23.0254H123.477V18.9076Z" fill="black"/>
<path d="M136.503 18.1037H128.702C128.218 18.1037 127.825 18.5056 127.816 18.9896V19.0634V37.167C127.849 37.6428 128.227 38.0201 128.702 38.0529H136.503C136.987 38.0529 137.381 37.651 137.389 37.167V18.9896V18.9157C137.373 18.4564 136.987 18.0954 136.528 18.1037C136.528 18.1037 136.511 18.1037 136.503 18.1037ZM135.396 36.6421H129.801V19.4243H135.396V36.6421Z" fill="black"/>
<path d="M168.954 18.9075C171.16 18.6861 171.529 18.6861 173.071 18.4646V16.9963C169.667 17.6033 166.222 17.997 162.769 18.1693V19.3423C162.99 19.3423 164.828 19.3423 167.034 19.1946V20.4415H162.252V21.7621H167.034V23.0828H164.163C163.679 23.0828 163.286 23.4847 163.277 23.9687V24.0425V31.0313C163.31 31.5071 163.687 31.8844 164.163 31.9172H167.034V33.3117H162.473V34.4929H167.034V36.5518C164.237 36.6995 162.252 36.6995 162.252 36.6995V38.094C171.078 37.651 173.654 37.2819 173.654 37.2819V36.1089C172.038 36.2565 170.414 36.3304 168.945 36.4042V34.4929H173.432V33.1723H168.945V31.7778H171.816C172.3 31.7778 172.694 31.3758 172.702 30.8919V23.8949V23.821C172.702 23.3371 172.3 22.9433 171.816 22.9351H168.945V21.6145H173.654V20.2938H168.872L168.945 18.8993L168.954 18.9075ZM167.034 30.4653H165.123V28.1111H167.034V30.4653ZM167.034 26.7823H165.123V24.428H167.034V26.7823ZM170.791 30.4653H168.954V28.1111H170.791V30.4653ZM170.791 24.428V26.7823H168.954V24.428H170.791Z" fill="black"/>
<path d="M95.4399 37.3065V38.6272C99.0492 37.8889 101.182 36.4206 102.724 33.5496H100.517C99.3609 35.4035 97.5481 36.7405 95.4399 37.3065Z" fill="black"/>
<path d="M109.861 33.5578H107.581C109.123 36.4288 111.329 37.9709 114.939 38.6354V37.3147C112.83 36.7569 111.018 35.4116 109.861 33.5578Z" fill="black"/>
<path d="M103.093 20.3102H107.211V21.639H103.093V20.3102Z" fill="black"/>
<path d="M106.629 22.8859H103.758C103.43 22.9023 103.151 23.1484 103.093 23.4765V29.727C103.126 30.0633 103.413 30.3258 103.758 30.3176H106.703C107.022 30.2766 107.285 30.0469 107.367 29.727V23.4765C107.285 23.132 106.981 22.8941 106.629 22.8859ZM105.89 29.3579H104.496V23.7636H105.89V29.3579Z" fill="black"/>
<path d="M114.495 18.399C114.512 17.9314 114.151 17.5377 113.683 17.5131C113.658 17.5131 113.642 17.5131 113.617 17.5131H110.673V18.8337H112.731V22H110.673V23.3207H112.731V26.5608H110.673V27.8896H112.731V31.5727H109.861V18.4072C109.861 17.9232 109.459 17.5295 108.975 17.5213H101.469C101.001 17.5049 100.608 17.8658 100.583 18.3333V18.399V31.5727H97.7121V27.8896H99.771V26.4952H97.7121V23.255H99.771V22.0082H97.7121V18.8419H99.771V17.4474H96.8262C96.3586 17.431 95.9649 17.792 95.9403 18.2595V18.3251V31.5727H94.9067V32.9016H115.512V31.5727H114.479V18.399H114.495ZM108.245 31.5645H102.06V18.7599H108.245V31.5645Z" fill="black"/>
<path d="M53.056 12.5093C53.7286 12.0417 54.3274 11.4675 54.8196 10.8195C55.5742 9.72033 56.0828 8.4571 56.2879 7.13644C56.3699 6.50482 56.4191 5.865 56.4355 5.22518C56.4355 5.07753 56.4191 4.92167 56.3617 4.78223C57.6167 4.92988 57.7562 4.92988 57.7562 5.07753C57.7562 5.15135 57.6824 5.22518 57.387 5.29901V5.59431C57.4281 6.63607 57.6824 7.66142 58.1253 8.61295C58.5519 9.49065 59.1835 10.2453 59.9627 10.8195C60.3975 11.164 60.8979 11.4183 61.431 11.5578V11.6316C60.9881 11.7054 60.7666 11.9269 60.5451 12.5913C59.6264 11.9925 58.8718 11.1886 58.3386 10.2371C57.953 9.43323 57.6577 8.59654 57.4527 7.73525C57.3542 7.27589 57.305 6.80833 57.305 6.34076C57.264 7.16925 57.1164 7.98133 56.8621 8.7688C56.4601 9.94181 55.7465 10.9836 54.8032 11.7874C54.3192 12.1976 53.7778 12.5175 53.1872 12.7472L53.0396 12.5257L53.056 12.5093Z" fill="black"/>
<path d="M64.6058 4.85608C64.9011 4.87248 65.2046 4.9217 65.4917 5.00373C65.787 5.15138 65.9347 5.22521 65.9347 5.44668C65.9347 5.55332 65.9101 5.65175 65.8609 5.74199C65.6886 6.34079 65.6148 6.96421 65.6394 7.57942C65.6394 7.94855 65.7132 8.0962 65.9347 8.0962C66.2218 8.05518 66.5007 7.95675 66.7468 7.8009C66.9683 7.66145 67.2225 7.58762 67.485 7.57942C67.7803 7.57942 68.0756 7.8009 68.0756 8.02237C68.0756 8.13721 68.0182 8.24385 67.928 8.31768C67.8542 8.3915 67.7803 8.3915 67.485 8.46533C66.6812 8.60477 65.9101 8.87547 65.2046 9.27741C64.4664 9.64653 64.0973 10.0895 64.0973 10.5981C64.0973 11.1887 64.5402 11.484 65.4917 11.484C66.189 11.4512 66.878 11.3527 67.5507 11.1887C67.6655 11.1312 67.7885 11.1066 67.9198 11.1148C68.2479 11.1312 68.5268 11.3773 68.5842 11.7054C68.5842 11.8531 68.5104 12.0007 68.3627 12.0007C68.1084 12.1156 67.8296 12.1648 67.5507 12.1484C67.1651 12.2058 66.7714 12.2304 66.3777 12.2222C65.8035 12.2386 65.2375 12.1648 64.6879 12.0007C64.0973 11.8039 63.7035 11.2297 63.7281 10.6063C63.7281 9.79419 64.3926 9.06413 65.787 8.25205H65.7132C65.541 8.25205 65.3769 8.17002 65.2703 8.03058C65.0488 7.8091 65.0488 7.58762 64.975 6.41462C64.975 6.02088 64.9175 5.62715 64.8273 5.24161C64.7535 5.02014 64.532 4.94631 64.1629 4.87248H64.6058V4.85608Z" fill="black"/>
<path d="M77.4838 6.3244C77.6478 6.16855 77.8037 5.99629 77.9267 5.80762C78.222 6.0291 78.3697 6.10293 78.665 6.3244C78.7388 6.39823 78.8126 6.39823 78.8126 6.47205C78.8126 6.51307 78.7798 6.54588 78.7388 6.54588C78.6322 6.6033 78.5255 6.67713 78.4435 6.76736V11.6973C78.3943 11.9515 78.263 12.1812 78.0744 12.3617C77.8529 12.5832 77.6314 12.5832 77.0408 12.657C76.967 12.2879 76.967 12.214 76.7455 12.0664C76.565 11.9515 76.3682 11.8777 76.1549 11.8449C76.0647 11.8039 75.9662 11.7793 75.8596 11.7711L75.5643 11.6973V11.5496C75.8842 11.5414 76.2041 11.566 76.524 11.6234C76.8193 11.6234 77.0408 11.6973 77.2623 11.6973C77.4099 11.6973 77.4099 11.6234 77.4099 11.5496V6.54588H72.1847V12.4355C72.1847 12.5832 72.1109 12.5832 72.0371 12.657C71.8484 12.7226 71.6433 12.7472 71.4465 12.7308C71.2988 12.7308 71.2988 12.657 71.2988 12.5832C71.3727 11.6234 71.3727 11.2625 71.3727 8.83447C71.4219 7.85013 71.3973 6.86579 71.2988 5.88965C71.6844 6.05371 72.0535 6.25058 72.4062 6.48026H73.5792C73.8335 5.88965 74.0304 5.27444 74.1698 4.64282C75.1296 4.8643 75.5643 5.01195 75.5643 5.08578C75.5643 5.1596 75.4905 5.23343 75.1214 5.30725C74.6784 5.82403 74.3093 6.19316 74.014 6.48026H77.4756V6.33261L77.4838 6.3244ZM75.7202 7.71888C75.8678 7.49741 75.9416 7.49741 76.0893 7.27593C76.3846 7.49741 76.4584 7.49741 76.7537 7.71888C76.8029 7.7681 76.8275 7.81732 76.8275 7.86654C76.8275 7.94036 76.7537 8.01419 76.6061 8.08801V10.5161C76.6061 10.6637 76.5322 10.6637 76.3846 10.7375C76.2369 10.7375 76.0155 10.8114 75.8678 10.8114C75.8104 10.8114 75.7612 10.7785 75.7202 10.7375V10.2207H73.9566V10.7375C73.9566 10.8852 73.8827 10.8852 73.8089 10.8852C73.7351 10.8852 73.5136 10.959 73.3659 10.959C73.2183 10.959 73.1445 10.8852 73.1445 10.8114C73.1445 10.1469 73.2183 9.92545 73.2183 9.4907V8.39152C73.2183 8.047 73.2019 7.70248 73.1445 7.35796C73.5874 7.57944 73.7351 7.57944 74.1042 7.80091L75.7202 7.72709V7.71888ZM74.0304 10.0075H75.794V7.94856H74.0304V10.0075Z" fill="black"/>
<path d="M80.7979 6.25054C81.1588 6.51303 81.6017 6.64427 82.0529 6.61966C82.5533 6.58685 83.0454 6.48842 83.5212 6.32436C83.3079 5.97984 83.0618 5.65993 82.7829 5.36463C82.5451 5.19237 82.258 5.11854 81.9709 5.14315C82.0447 4.9955 82.1185 4.92168 82.4138 4.84785C82.5779 4.78223 82.7501 4.75762 82.9306 4.77403C83.1849 4.76582 83.4392 4.81504 83.6688 4.92168C83.7427 4.9955 83.7427 5.06933 83.8165 5.2908C83.8165 5.51228 83.8903 5.58611 84.1118 6.10288C84.5712 5.97984 84.9977 5.75016 85.3668 5.43846C85.4407 5.36463 85.5145 5.36463 85.6621 5.36463C86.0313 5.36463 86.2527 5.51228 86.2527 5.65993C86.2527 5.80758 86.1789 5.88141 85.8098 6.02906C85.3668 6.25054 84.8993 6.4228 84.4153 6.54584C84.4891 6.61966 84.7844 7.21027 85.0059 7.50557C85.3586 7.38253 85.7031 7.23488 86.0395 7.06262C85.8836 6.89856 85.7114 6.74271 85.5227 6.61966L85.5965 6.54584C85.8344 6.70169 86.1215 6.78372 86.4086 6.76731L86.5562 6.69349H86.6301C86.7777 6.67708 86.909 6.79192 86.9254 6.93957V6.98879C86.9254 7.28409 86.4824 7.57939 85.1618 8.02235C85.3832 8.4653 85.4571 8.4653 85.5309 8.68678C85.6785 8.89185 85.8016 9.11332 85.9 9.35121C86.0395 9.51526 86.1133 9.72854 86.1215 9.94181C86.1215 10.3848 85.9738 10.6801 85.7524 10.6801C85.6785 10.6801 85.6047 10.6062 85.4571 10.5324C85.2684 10.3438 85.0387 10.1961 84.7926 10.0895C84.3333 9.87619 83.8247 9.77775 83.3243 9.79416C82.4384 9.79416 81.7822 10.1633 81.7822 10.6801C81.7822 11.2707 82.3728 11.4921 83.3981 11.4921C83.7427 11.4757 84.0872 11.4265 84.4317 11.3445C84.5055 11.3445 84.5794 11.2707 84.6532 11.2707C84.9485 11.2707 85.3914 11.566 85.3914 11.8613C85.3914 12.0089 85.3176 12.0828 85.17 12.1566C84.7598 12.255 84.3415 12.3042 83.9149 12.3042C83.2833 12.3288 82.6517 12.1976 82.0775 11.9351C81.6017 11.73 81.29 11.2707 81.2654 10.7621C81.2654 9.87619 82.2251 9.36761 83.6196 9.36761C84.1856 9.38402 84.7598 9.45784 85.3094 9.58909C85.17 9.08872 84.9485 8.62115 84.645 8.19461C84.0298 8.40788 83.3817 8.53092 82.7337 8.56373C82.0939 8.64576 81.4869 8.27664 81.2654 7.67783L81.3392 7.604C81.6017 7.94852 82.0119 8.13719 82.4466 8.12078C83.1193 8.07977 83.7919 7.95673 84.4317 7.75165C84.2594 7.41534 84.0626 7.09543 83.8411 6.79192C83.3243 6.98059 82.7747 7.07902 82.2251 7.08723C81.6345 7.07902 81.0767 6.77552 80.7568 6.27514H80.8225L80.7979 6.25054Z" fill="black"/>
<path d="M88.5254 8.82627C89.4441 8.15363 90.2562 7.36616 90.9534 6.47205C91.4128 5.88965 91.7819 5.24983 92.0608 4.56079C92.2823 4.63462 92.5038 4.63462 92.6514 4.70844C93.3158 4.85609 93.4635 4.85609 93.4635 5.00374C93.4635 5.07757 93.3158 5.1514 93.0944 5.1514C93.5209 5.88965 94.1607 6.48025 94.9318 6.84118C95.6291 7.27593 96.4083 7.57123 97.2122 7.72709V7.87474C96.8431 7.94856 96.6216 8.17004 96.4001 8.76064C94.9072 7.99778 93.7096 6.75095 93.0123 5.22522C92.4628 6.11933 91.7655 6.92321 90.9534 7.57943C90.2972 8.13723 89.5507 8.58838 88.7469 8.90009L88.5254 8.82627ZM90.8796 12.4355C90.8796 12.657 90.8058 12.657 90.289 12.657H90.1414C90.0347 12.6734 89.9363 12.5996 89.9199 12.4929C89.9199 12.4765 89.9199 12.4519 89.9199 12.4355C89.9937 10.6719 89.9937 10.3766 89.9937 9.71217C90.0101 9.41687 89.9855 9.11336 89.9199 8.82627C90.3628 9.04774 90.5105 9.12157 90.8796 9.34304H94.2674C94.4314 9.16258 94.5791 8.96571 94.7103 8.75244C95.0056 8.97392 95.0795 9.04774 95.4486 9.34304C95.4978 9.39226 95.5224 9.44148 95.5224 9.49069C95.5224 9.56452 95.3748 9.63835 95.2271 9.71217C95.2271 10.8852 95.2271 11.2543 95.3009 12.4355C95.3009 12.5832 95.2271 12.5832 95.0795 12.657C95.0056 12.657 94.7103 12.7308 94.5627 12.7308C94.415 12.7308 94.3412 12.657 94.3412 12.5832V12.2222H90.8058V12.4437H90.8714L90.8796 12.4355ZM90.732 7.80091C90.9452 7.85833 91.1667 7.88294 91.3964 7.87474H93.16C93.3323 7.63685 93.5291 7.41538 93.7506 7.21031C94.0623 7.43178 94.3576 7.67787 94.6365 7.94856L94.7103 8.02239C94.7103 8.09621 94.6365 8.09621 94.5627 8.09621H91.3226C91.1257 8.09621 90.9288 8.12082 90.732 8.17004C90.8058 8.09621 90.732 7.80091 90.732 7.80091ZM90.8796 11.9187H94.415V9.49069H90.8796V11.9187Z" fill="black"/>
<path d="M101.551 8.31769C101.182 9.27743 101.108 9.42508 100.96 9.85983C100.854 10.1141 100.805 10.393 100.813 10.6719C100.813 10.8196 100.829 10.9754 100.887 11.1149C100.887 11.1723 100.919 11.2215 100.96 11.2625C100.969 11.4512 100.829 11.6152 100.632 11.6316C100.616 11.6316 100.608 11.6316 100.591 11.6316C100.132 11.5168 99.73 11.2297 99.4839 10.8196C99 9.97467 98.7703 8.99853 98.8195 8.02239V7.21031C98.8851 6.66892 98.6965 6.11933 98.3027 5.742C98.5488 5.75841 98.7867 5.86505 98.9672 6.03731C99.3691 6.26699 99.648 6.67713 99.7054 7.14469C99.7054 7.26773 99.6808 7.39898 99.6316 7.51382C99.5086 7.94036 99.4593 8.39152 99.4839 8.83447C99.4839 9.26102 99.5578 9.68757 99.7054 10.0813C99.7792 10.3028 99.8531 10.4504 100.075 10.5243C100.288 10.2208 100.485 9.90084 100.665 9.56452C100.887 9.1954 100.96 8.97392 101.403 8.31769H101.543H101.551ZM103.388 6.69353C104.069 6.80017 104.676 7.1693 105.078 7.72709C105.456 8.23567 105.661 8.85908 105.669 9.4907C105.669 10.0813 105.374 10.3766 105.004 10.3766C104.89 10.3766 104.783 10.3192 104.709 10.229C104.488 10.0813 104.34 10.0075 103.602 10.0075H103.38L103.306 9.85983C103.733 9.76139 104.151 9.63835 104.553 9.4907C104.701 9.41687 104.775 9.34305 104.775 9.1954C104.75 8.76885 104.644 8.3423 104.479 7.94857C104.25 7.42359 103.831 7.00524 103.298 6.76736L103.372 6.69353H103.388Z" fill="black"/>
<path d="M106.916 10.5242C107.588 10.7129 108.228 10.9836 108.827 11.3363C109.106 11.5086 109.278 11.8203 109.27 12.1484C109.27 12.5175 109.048 12.8866 108.827 12.8866C108.753 12.8866 108.679 12.8128 108.605 12.739L108.163 12.0746C107.818 11.484 107.342 10.9754 106.768 10.6063C106.908 10.6063 106.908 10.5324 106.908 10.5324L106.916 10.5242Z" fill="black"/>
<path d="M116.636 8.82627C116.333 9.08876 116.013 9.33484 115.676 9.56452L115.603 9.49069C116.013 9.08055 116.365 8.61299 116.636 8.09621C116.948 7.56303 117.194 6.99703 117.374 6.40643C118.26 6.70173 118.547 6.77556 118.547 6.84938C118.547 6.92321 118.4 6.99703 118.178 6.99703C117.949 7.43178 117.645 7.82552 117.292 8.17004C117.661 8.24386 117.735 8.24386 117.735 8.31769C117.735 8.39152 117.661 8.39151 117.514 8.46534V10.4504C117.473 11.0902 117.497 11.7301 117.588 12.3617C117.588 12.4355 117.588 12.5093 117.514 12.5093C117.44 12.5832 117.219 12.5832 117.071 12.5832H116.923C116.817 12.5996 116.718 12.5257 116.702 12.4191C116.702 12.4027 116.702 12.3863 116.702 12.3617L116.628 8.82627H116.636ZM115.676 6.98883C116.119 6.56228 116.488 6.06191 116.784 5.52052C116.997 5.23342 117.145 4.91351 117.227 4.56079C117.424 4.61821 117.62 4.69204 117.817 4.78227C118.26 4.92992 118.482 5.00374 118.482 5.07757C118.482 5.1514 118.334 5.22522 118.039 5.22522C117.424 6.01269 116.644 6.66892 115.758 7.13648L115.685 6.98883H115.676ZM118.547 9.49069C118.35 9.49069 118.154 9.5153 117.957 9.56452L117.883 9.26922C118.096 9.33484 118.318 9.35945 118.547 9.34304H119.286V8.75244C119.302 8.50635 119.277 8.25207 119.212 8.01418C120.319 8.08801 120.385 8.16184 120.385 8.23566C120.385 8.30949 120.311 8.38331 120.089 8.45714V9.34304H120.532C120.754 9.04774 120.828 8.97392 120.975 8.75244C121.271 9.04774 121.418 9.12157 121.714 9.41687C121.714 9.45788 121.746 9.49069 121.787 9.49069C121.787 9.53171 121.755 9.56452 121.714 9.56452H120.172V10.8852C120.984 10.7375 121.279 10.6637 121.861 10.5899V10.7375C120.738 11.2379 119.581 11.648 118.4 11.9844C118.35 12.2304 118.301 12.3535 118.252 12.3535C118.104 12.3535 118.104 12.2058 117.809 11.1805H117.957C118.252 11.1805 118.695 11.1067 119.351 11.0328V9.49069H118.539H118.547ZM120.532 7.65326C120.721 7.4892 120.869 7.29233 120.975 7.06266C121.271 7.35796 121.345 7.35796 121.714 7.72709L121.787 7.80091C121.787 7.87474 121.714 7.87474 121.64 7.87474H118.474C118.277 7.87474 118.08 7.89934 117.883 7.94856L117.809 7.65326C118.022 7.71068 118.252 7.73529 118.474 7.72709H119.286V6.25878H118.621C118.474 6.25058 118.318 6.27518 118.178 6.3326L118.104 6.0373C118.293 6.09472 118.498 6.11933 118.695 6.11113H119.359V5.4467C119.359 5.20061 119.343 4.95453 119.286 4.70844C119.474 4.76586 119.679 4.79047 119.876 4.78227C120.393 4.85609 120.541 4.85609 120.541 4.92992C120.541 5.00374 120.467 5.07757 120.172 5.1514V6.0373H120.614C120.779 5.85684 120.926 5.65997 121.057 5.4467C121.32 5.61896 121.566 5.81582 121.796 6.0373L121.87 6.11113C121.87 6.18495 121.796 6.18495 121.722 6.18495H120.18V7.57943H120.623L120.549 7.65326H120.532ZM123.108 10.3766V11.8449C123.108 12.1402 123.034 12.214 122.813 12.4355C122.526 12.6078 122.198 12.7144 121.853 12.7308C121.853 12.3617 121.779 12.2879 121.558 12.1402C121.271 11.968 120.943 11.8613 120.598 11.8449V11.6973C121.115 11.7547 121.623 11.7793 122.14 11.7711C122.222 11.7711 122.28 11.7055 122.288 11.6234V7.50561H122.066C121.919 7.4892 121.763 7.50561 121.623 7.57943L121.55 7.28413C121.738 7.34976 121.943 7.37436 122.14 7.35796H122.805C122.977 7.12008 123.174 6.8986 123.395 6.69353C123.707 6.915 124.002 7.16109 124.281 7.43178C124.281 7.4728 124.314 7.50561 124.355 7.50561L124.281 7.57943H123.321L123.1 10.3766H123.108ZM121.492 5.4467C121.705 5.51232 121.927 5.53693 122.157 5.52052H122.6C122.772 5.28264 122.969 5.06116 123.19 4.85609C123.559 5.1514 123.633 5.22522 124.002 5.52052L124.076 5.59435C124.076 5.66817 124.002 5.66817 123.928 5.66817H122.165C121.993 5.65997 121.812 5.68458 121.648 5.742L121.5 5.4467H121.492Z" fill="black"/>
<path d="M126.127 6.10288C126.43 6.43099 126.865 6.58685 127.3 6.54583C127.595 6.52943 127.899 6.48021 128.186 6.39818C128.342 6.10288 128.44 5.77477 128.481 5.43845C128.481 5.14315 128.26 4.9955 127.817 4.84785C127.948 4.76582 128.104 4.7166 128.26 4.7002C128.571 4.7002 128.875 4.77402 129.145 4.92167C129.367 4.9955 129.515 5.14315 129.515 5.2908C129.515 5.36462 129.441 5.43845 129.367 5.5861C129.203 5.79117 129.055 6.01265 128.924 6.25053C129.375 6.14389 129.802 5.94703 130.171 5.65993C130.228 5.60251 130.31 5.5779 130.392 5.5861C130.761 5.5861 131.057 5.73375 131.057 5.95523C131.057 6.17671 130.909 6.25053 130.318 6.39818C129.744 6.58685 129.154 6.7345 128.555 6.84114C128.383 7.04621 128.235 7.26768 128.112 7.50556L127.669 8.16999C128.046 7.93211 128.473 7.80087 128.916 7.80087C129.4 7.76806 129.826 8.12898 129.876 8.61295C130.113 8.4735 130.36 8.35046 130.614 8.24382C131.5 7.80087 131.787 7.57939 131.787 7.43174C131.787 7.28409 131.639 7.13644 131.344 6.98879C131.442 6.93957 131.516 6.91496 131.565 6.91496C132.008 6.91496 132.812 7.57939 132.812 8.02234C132.812 8.16999 132.738 8.24382 132.443 8.31765C131.606 8.53912 130.794 8.83442 130.015 9.20355V9.86798C130.048 10.1387 130.023 10.4176 129.941 10.6801C129.867 10.8195 129.728 10.9015 129.572 10.9015C129.383 10.9097 129.219 10.7703 129.203 10.5734C129.203 10.557 129.203 10.5488 129.203 10.5324C129.203 10.4094 129.236 10.2863 129.277 10.1633C129.277 9.96641 129.301 9.76955 129.351 9.57268C128.998 9.74494 128.678 9.96641 128.391 10.2371C128.169 10.4176 128.03 10.6883 128.022 10.9754C128.022 11.4183 128.465 11.6398 129.416 11.6398C129.859 11.6234 130.302 11.5742 130.745 11.4921C130.909 11.4265 131.081 11.3773 131.262 11.3445C131.336 11.3445 131.409 11.2707 131.483 11.2707C131.656 11.2789 131.811 11.3609 131.926 11.4921C132.074 11.6398 132.222 11.7874 132.222 11.8613C132.213 12.0171 132.082 12.1484 131.926 12.1566C131.368 12.2632 130.802 12.3124 130.236 12.3042C129.556 12.3452 128.875 12.2222 128.251 11.9351C127.964 11.73 127.8 11.4019 127.808 11.0492C127.858 10.5652 128.096 10.1141 128.473 9.80236C128.817 9.49885 129.187 9.22816 129.58 8.99028C129.58 8.7606 129.531 8.53092 129.433 8.32585C129.351 8.15359 129.187 8.03875 128.99 8.03055C128.186 8.16179 127.48 8.64576 127.078 9.3512C126.857 9.6465 126.783 9.6465 126.635 9.6465C126.414 9.6465 126.34 9.3512 126.34 8.98207C126.34 8.7606 126.414 8.68677 126.783 8.39147C127.333 7.8993 127.8 7.33331 128.178 6.70169C128.055 6.70989 127.931 6.7345 127.808 6.77551C126.849 6.99699 126.414 6.77551 126.119 6.11108L126.127 6.10288Z" fill="black"/>
<path d="M137.455 11.6234C138.448 11.3937 139.383 10.9425 140.178 10.3027C140.777 9.81874 141.13 9.08869 141.138 8.31762C141.155 7.51375 140.515 6.85752 139.711 6.84111C139.67 6.84111 139.629 6.84111 139.588 6.84111C138.275 6.98056 137.045 7.57937 136.126 8.5309C136.028 8.64574 135.905 8.71956 135.757 8.75237C135.126 8.62933 134.625 8.13716 134.51 7.50554C134.502 7.42351 134.527 7.34149 134.584 7.28407C134.732 7.50554 134.732 7.57937 134.879 7.65319C135.027 7.72702 135.101 7.80084 135.249 7.80084C135.634 7.73522 136.003 7.61218 136.356 7.43172C137.381 6.89033 138.513 6.58682 139.67 6.54581C140.868 6.40636 141.942 7.25946 142.082 8.45707C142.09 8.5309 142.098 8.60472 142.098 8.67855C142.098 9.85155 141.36 10.7375 140.039 11.3281C139.235 11.6316 138.39 11.8366 137.537 11.9187L137.463 11.6234H137.455Z" fill="black"/>
<path d="M145.92 4.63458C146.265 4.66739 146.593 4.79864 146.88 5.00371C147.126 5.14316 147.29 5.38924 147.323 5.66814C147.323 5.88962 147.175 5.96344 146.732 6.25874C146.166 6.63607 145.625 7.05442 145.116 7.51378C144.673 7.8829 144.452 8.17821 144.452 8.39968C144.468 8.58835 144.575 8.76061 144.747 8.84264C144.821 8.91646 145.116 9.13794 145.485 9.50707C145.961 9.8844 146.404 10.3027 146.814 10.7539C147.118 11.041 147.274 11.4429 147.257 11.8613C147.257 12.3042 147.036 12.5995 146.814 12.5995C146.667 12.5995 146.519 12.5257 146.445 12.1566C146.051 11.3199 145.526 10.5488 144.903 9.87619C144.46 9.28559 144.165 8.99029 144.091 8.84264C144.025 8.736 144.001 8.60475 144.017 8.47351C144.017 8.21922 144.124 7.98134 144.312 7.80908C144.657 7.34972 145.018 6.90677 145.412 6.48022C145.928 5.88962 146.15 5.52049 146.15 5.30721C146.133 5.20058 146.084 5.09394 146.002 5.01191C145.928 4.86426 145.855 4.86426 145.633 4.71661C145.855 4.71661 145.855 4.64279 145.928 4.64279L145.92 4.63458Z" fill="black"/>
<path d="M151.515 9.19539C152.228 8.69502 153.073 8.41613 153.943 8.38331C154.935 8.28488 155.821 9.00673 155.919 9.99927C155.919 10.0485 155.919 10.0977 155.928 10.1551C155.928 11.4758 154.681 12.4355 152.983 12.4355C152.023 12.4355 151.441 12.0664 151.441 11.4758C151.441 11.0328 151.884 10.6637 152.548 10.6637C153.229 10.6391 153.852 11.0574 154.09 11.6973C154.697 11.4348 155.083 10.8196 155.05 10.1551C155.05 9.34305 154.607 8.90829 153.721 8.90829C153.073 8.9247 152.458 9.16258 151.957 9.57272C151.564 9.85982 151.211 10.2043 150.932 10.6063C150.834 10.7539 150.76 10.8278 150.711 10.8278C150.653 10.8278 150.604 10.8606 150.563 10.9016C150.341 10.9016 150.194 10.5325 150.194 10.1633C150.194 10.0157 150.341 9.7942 150.637 9.57272C151.465 8.76064 152.253 7.89935 152.991 6.99703C153.434 6.33261 153.803 5.82403 153.803 5.82403C153.737 5.85684 153.655 5.88145 153.582 5.89786C153.418 5.93887 153.27 6.01269 153.139 6.11933C152.696 6.34081 152.327 6.41463 151.966 6.63611C151.744 6.70994 151.67 6.78376 151.597 6.78376C151.375 6.78376 151.227 6.63611 151.006 6.41463C150.875 6.19316 150.801 5.93887 150.784 5.67638C150.784 5.56974 150.809 5.47131 150.858 5.38108C150.932 5.742 151.236 6.01269 151.597 6.04551C152.048 6.01269 152.499 5.91426 152.925 5.7502C153.204 5.68458 153.475 5.58615 153.737 5.4549C153.885 5.30725 153.959 5.30725 154.033 5.30725C154.205 5.31545 154.361 5.39748 154.476 5.52873C154.771 5.82403 154.919 5.97168 154.919 6.11933C154.919 6.17675 154.886 6.22597 154.845 6.26698C154.779 6.3244 154.705 6.37362 154.623 6.41463C154.262 6.68533 153.918 6.98063 153.59 7.30054L152.261 8.6212C151.892 8.9165 151.67 9.06415 151.523 9.2118L151.515 9.19539ZM152.253 10.9672C151.957 10.9672 151.662 11.1887 151.662 11.4102C151.662 11.7793 152.031 12.0008 152.696 12.0008C152.893 12.0008 153.098 11.9844 153.286 11.9269C153.139 11.2625 152.77 10.9672 152.253 10.9672Z" fill="black"/>
<path d="M160.267 11.6972C160.267 12.3452 159.742 12.8784 159.086 12.8784C158.429 12.8784 157.904 12.3534 157.904 11.6972C157.904 11.0492 158.429 10.516 159.086 10.516C159.742 10.516 160.267 11.041 160.267 11.6972ZM158.208 11.6972C158.208 12.1812 158.61 12.5749 159.094 12.5831C159.578 12.5831 159.98 12.1894 159.98 11.6972C159.98 11.205 159.586 10.8113 159.094 10.8113C158.61 10.8113 158.216 11.2132 158.208 11.6972Z" fill="black"/>
</g>
<defs>
<clipPath id="clip0_2244_1794">
<rect width="205.891" height="44" fill="white"/>
</clipPath>
</defs>
</svg>
