<svg width="850" height="275" viewBox="0 0 850 275" fill="none" xmlns="http://www.w3.org/2000/svg">
<g clip-path="url(#clip0_981_21307)">
<path d="M31.0024 129.651C31.0924 129.898 31.1824 130.145 31.2724 130.392C31.3624 130.639 31.4974 130.864 31.6099 131.088C31.7224 131.313 31.8799 131.537 32.0148 131.762C32.1498 131.987 32.3073 132.189 32.4873 132.391C32.6448 132.593 32.8248 132.773 33.0048 132.975C33.1847 133.154 33.3872 133.334 33.5897 133.491C33.7922 133.648 33.9947 133.806 34.2197 133.963C34.4446 134.12 34.6471 134.232 34.8946 134.367C35.1421 134.502 35.3671 134.614 35.592 134.704C35.817 134.794 36.087 134.906 36.3345 134.973C36.582 135.063 36.8519 135.108 37.0994 135.176C37.3694 135.22 37.6394 135.265 37.9093 135.288C38.1793 135.31 38.4493 135.333 38.7418 135.333C39.0342 135.333 39.3042 135.333 39.5742 135.288C39.8442 135.243 40.1142 135.22 40.3841 135.176C40.6541 135.131 40.9016 135.063 41.1491 134.973C41.3965 134.884 41.644 134.794 41.8915 134.704C42.139 134.614 42.364 134.479 42.5889 134.367C42.8139 134.255 43.0389 134.098 43.2639 133.963C43.4889 133.828 43.6913 133.671 43.8938 133.491C44.0963 133.334 44.2763 133.154 44.4788 132.975C44.6588 132.795 44.8388 132.593 44.9962 132.391C45.1537 132.189 45.3112 131.987 45.4687 131.762C45.6262 131.537 45.7387 131.335 45.8737 131.088C46.0086 130.841 46.1211 130.617 46.2111 130.392C46.3011 130.167 46.4136 129.898 46.4811 129.651C46.4811 129.584 46.5036 129.516 46.5261 129.449L72.4664 43.8608C72.6014 43.4116 73.0738 43.0747 73.6363 43.0747C74.1762 43.0747 74.6487 43.3891 74.8062 43.8383L102.434 129.651C102.501 129.898 102.614 130.145 102.704 130.392C102.816 130.639 102.929 130.864 103.041 131.088C103.176 131.313 103.289 131.537 103.446 131.739C103.581 131.964 103.739 132.166 103.919 132.368C104.076 132.57 104.256 132.75 104.436 132.93C104.616 133.109 104.819 133.289 104.999 133.446C105.201 133.604 105.404 133.761 105.629 133.918C105.854 134.053 106.056 134.187 106.281 134.322C106.506 134.457 106.753 134.569 106.978 134.659C107.203 134.749 107.473 134.861 107.721 134.929C107.968 134.996 108.238 135.063 108.486 135.131C108.756 135.176 109.003 135.221 109.296 135.243C109.588 135.265 109.836 135.288 110.128 135.288C110.421 135.288 110.691 135.288 110.961 135.243C111.231 135.198 111.501 135.176 111.771 135.131C112.041 135.086 112.288 135.018 112.535 134.929C112.783 134.861 113.03 134.749 113.278 134.659C113.525 134.569 113.75 134.434 113.975 134.322C114.2 134.21 114.425 134.075 114.628 133.918C114.853 133.783 115.055 133.626 115.258 133.446C115.46 133.289 115.64 133.109 115.82 132.93C116 132.75 116.18 132.548 116.338 132.368C116.495 132.166 116.653 131.964 116.81 131.739C116.945 131.515 117.08 131.313 117.215 131.088C117.35 130.864 117.463 130.617 117.553 130.392C117.665 130.145 117.755 129.898 117.823 129.651L119.262 124.665L150.332 18.0564C150.332 18.0564 150.377 17.9216 150.377 17.8767C150.377 17.8318 150.4 17.7419 150.4 17.6746C150.4 17.6072 150.4 17.5398 150.4 17.4724C150.4 17.4051 150.4 17.3377 150.4 17.2703C150.4 17.2029 150.4 17.1356 150.377 17.0682C150.355 17.0008 150.355 16.9334 150.332 16.8885C150.332 16.8212 150.287 16.7762 150.265 16.7089C150.242 16.6415 150.22 16.5966 150.175 16.5292C150.152 16.4843 150.107 16.4169 150.085 16.372C150.04 16.3271 150.017 16.2597 149.972 16.2148C149.927 16.1699 149.882 16.125 149.837 16.08C149.792 16.0351 149.747 15.9902 149.702 15.9453C149.657 15.9004 149.612 15.8779 149.545 15.833C149.477 15.7881 149.432 15.7656 149.387 15.7432C149.342 15.7207 149.275 15.6758 149.207 15.6533C149.14 15.6309 149.095 15.6084 149.027 15.586C148.96 15.586 148.892 15.541 148.847 15.541C148.78 15.541 148.712 15.5186 148.645 15.5186C148.577 15.5186 148.51 15.5186 148.442 15.5186C148.375 15.5186 148.307 15.5186 148.24 15.5186C148.172 15.5186 148.105 15.5186 148.037 15.541C147.97 15.541 147.902 15.5635 147.857 15.586C147.79 15.586 147.745 15.6309 147.677 15.6533C147.61 15.6758 147.565 15.6983 147.497 15.7432C147.452 15.7656 147.385 15.8105 147.34 15.833C147.295 15.8555 147.228 15.9004 147.183 15.9453C147.138 15.9902 147.093 16.0351 147.048 16.08C147.003 16.125 146.958 16.1699 146.913 16.2148C146.868 16.2597 146.845 16.3046 146.8 16.372C146.755 16.4169 146.733 16.4843 146.71 16.5292C146.688 16.5741 146.643 16.6415 146.62 16.7089C146.598 16.7762 146.575 16.8212 146.553 16.8885C146.553 16.9559 146.508 17.0233 146.508 17.0682C146.508 17.1356 146.485 17.2029 146.485 17.2703L118.475 114.806C118.34 115.278 117.868 115.592 117.305 115.592C116.765 115.592 116.27 115.278 116.135 114.806L86.6402 22.0988C86.5727 21.8967 86.5052 21.717 86.4377 21.5374C86.3702 21.3577 86.2802 21.178 86.1902 20.9984C86.1002 20.8187 85.9877 20.6615 85.8752 20.5043C85.7628 20.3471 85.6503 20.1899 85.5153 20.0327C85.3803 19.8755 85.2678 19.7407 85.1103 19.606C84.9753 19.4712 84.8178 19.3365 84.6828 19.2017C84.5254 19.067 84.3679 18.9547 84.2104 18.8424C84.0529 18.7301 83.8729 18.6403 83.7154 18.528C83.5354 18.4381 83.3555 18.3483 83.1755 18.2809C82.9955 18.2136 82.8155 18.1462 82.613 18.0788C82.4105 18.0114 82.2306 17.9665 82.0281 17.9216C81.8256 17.8767 81.6231 17.8542 81.4206 17.8318C81.2181 17.8318 81.0157 17.8093 80.7907 17.8093C80.5657 17.8093 80.3632 17.8093 80.1607 17.8318C79.9583 17.8318 79.7558 17.8767 79.5533 17.9216C79.3508 17.9665 79.1483 18.0114 78.9683 18.0788C78.7884 18.1462 78.5859 18.2136 78.4059 18.2809C78.2259 18.3483 78.0459 18.4381 77.8659 18.528C77.6859 18.6178 77.5285 18.7301 77.371 18.8424C77.2135 18.9547 77.056 19.067 76.8985 19.2017C76.741 19.3365 76.606 19.4488 76.4711 19.606C76.3361 19.7407 76.2011 19.8979 76.0661 20.0327C75.9311 20.1674 75.8186 20.3471 75.7061 20.5043C75.5936 20.6615 75.5036 20.8412 75.3911 20.9984C75.2786 21.1556 75.2112 21.3577 75.1437 21.5374C75.0762 21.717 74.9862 21.8967 74.9412 22.0988L73.2988 27.5786V27.6011L47.606 113.773C47.471 114.245 46.9761 114.559 46.4361 114.559C45.8737 114.559 45.4012 114.222 45.2662 113.773L18.4035 22.1437C18.3135 21.8518 18.201 21.5598 18.0885 21.2903C17.976 21.0208 17.8411 20.7289 17.6836 20.4594C17.5486 20.1899 17.3911 19.9428 17.2111 19.6733C17.0311 19.4038 16.8511 19.1793 16.6712 18.9547C16.4912 18.7301 16.2662 18.5055 16.0637 18.2809C15.8612 18.0564 15.6362 17.8767 15.3888 17.6746C15.1413 17.4724 14.9163 17.2928 14.6688 17.1356C14.4213 16.9559 14.1514 16.7987 13.8814 16.664C13.6114 16.5292 13.3414 16.3945 13.049 16.2597C12.7565 16.1474 12.4865 16.0351 12.194 15.9453C11.9016 15.8555 11.6091 15.7656 11.2941 15.7207C10.9791 15.6533 10.6867 15.6084 10.3492 15.586C10.0342 15.5635 9.71925 15.541 9.38177 15.541C9.0443 15.541 8.72933 15.541 8.41436 15.586C8.09938 15.6084 7.78441 15.6758 7.46944 15.7207C7.15446 15.7881 6.86199 15.8555 6.56951 15.9453C6.27704 16.0351 5.98456 16.1474 5.71459 16.2597C5.44461 16.372 5.15213 16.5067 4.88216 16.664C4.61218 16.7987 4.3647 16.9559 4.09473 17.1356C3.84725 17.3152 3.59977 17.4949 3.37479 17.6746C3.14981 17.8542 2.92482 18.0788 2.69984 18.2809C2.47486 18.4831 2.29488 18.7076 2.0924 18.9547C1.88991 19.2017 1.70993 19.4263 1.55244 19.6733C1.37246 19.9204 1.21497 20.1899 1.07998 20.4594C0.944994 20.7289 0.810005 20.9984 0.675017 21.2903C0.540028 21.5823 0.450036 21.8518 0.360044 22.1437C0.270051 22.4357 0.180059 22.7277 0.135063 23.0421C0.0675685 23.3565 0.0225724 23.6484 7.42855e-05 23.9853C-0.0224238 24.2997 -0.0449219 24.6141 -0.0449219 24.951C-0.0449219 25.2879 -0.0449219 25.6023 7.42855e-05 25.9167C0.0225724 26.2311 0.0900666 26.5455 0.135063 26.8599C0.202557 27.1744 0.270051 27.4663 0.360044 27.7583C0.360044 27.8256 0.40504 27.8706 0.427538 27.9379L30.9574 129.673L31.0024 129.651Z" fill="#231815"/>
<path d="M123.897 162.754C123.829 162.44 123.762 162.148 123.672 161.833C123.582 161.541 123.469 161.249 123.357 160.958C123.244 160.666 123.109 160.396 122.952 160.127C122.794 159.857 122.637 159.588 122.479 159.341C122.299 159.094 122.12 158.846 121.94 158.599C121.737 158.375 121.535 158.128 121.332 157.926C121.13 157.724 120.882 157.499 120.657 157.319C120.432 157.117 120.185 156.938 119.915 156.78C119.667 156.601 119.397 156.443 119.127 156.309C118.857 156.151 118.587 156.017 118.295 155.904C118.002 155.792 117.71 155.68 117.417 155.59C117.125 155.5 116.81 155.41 116.495 155.365C116.18 155.298 115.865 155.253 115.55 155.231C115.235 155.208 114.898 155.186 114.583 155.186C114.268 155.186 113.93 155.186 113.615 155.231C113.3 155.276 112.985 155.321 112.67 155.365C112.355 155.433 112.063 155.5 111.748 155.59C111.455 155.68 111.163 155.792 110.87 155.904C110.578 156.017 110.308 156.151 110.038 156.309C109.768 156.466 109.498 156.623 109.251 156.78C109.003 156.96 108.756 157.14 108.508 157.319C108.261 157.521 108.036 157.724 107.833 157.926C107.631 158.128 107.406 158.375 107.226 158.599C107.023 158.846 106.843 159.071 106.686 159.341C106.506 159.588 106.348 159.857 106.213 160.127C106.078 160.396 105.921 160.666 105.808 160.958C105.696 161.249 105.583 161.541 105.493 161.833C105.403 162.125 105.313 162.44 105.268 162.754C105.201 163.069 105.156 163.383 105.133 163.697C105.111 164.012 105.088 164.349 105.088 164.663V204.594C105.088 208.659 101.084 211.96 96.1792 211.96H53.9728C49.0457 211.96 45.0636 208.659 45.0636 204.594V164.641C45.0636 164.304 45.0636 163.989 45.0186 163.675C44.9736 163.361 44.9286 163.046 44.8836 162.732C44.8161 162.417 44.7486 162.125 44.6586 161.811C44.5686 161.519 44.4561 161.227 44.3436 160.935C44.2311 160.643 44.0962 160.374 43.9387 160.104C43.7812 159.835 43.6237 159.565 43.4662 159.318C43.2862 159.071 43.1062 158.824 42.9263 158.577C42.7238 158.352 42.5213 158.105 42.3188 157.903C42.1163 157.701 41.8688 157.477 41.6439 157.297C41.4189 157.095 41.1714 156.915 40.9014 156.758C40.654 156.578 40.384 156.421 40.114 156.286C39.844 156.129 39.574 155.994 39.2816 155.882C38.9891 155.77 38.6966 155.657 38.4041 155.568C38.1117 155.478 37.7967 155.388 37.4817 155.343C37.1667 155.276 36.8518 155.231 36.5368 155.208C36.2218 155.186 35.8844 155.163 35.5694 155.163C35.2544 155.163 34.9169 155.163 34.602 155.208C34.287 155.253 33.972 155.298 33.657 155.343C33.3421 155.41 33.0496 155.478 32.7346 155.568C32.4422 155.657 32.1497 155.77 31.8572 155.882C31.5647 155.994 31.2948 156.129 31.0248 156.286C30.7548 156.443 30.4848 156.601 30.2373 156.758C29.9899 156.938 29.7424 157.117 29.4949 157.297C29.2474 157.499 29.0224 157.701 28.82 157.903C28.6175 158.105 28.3925 158.352 28.2125 158.577C28.01 158.824 27.83 159.049 27.6726 159.318C27.4926 159.565 27.3351 159.835 27.2001 160.104C27.0651 160.374 26.9076 160.643 26.7951 160.935C26.6826 161.227 26.5702 161.519 26.4802 161.811C26.3902 162.103 26.3002 162.417 26.2552 162.732C26.1877 163.046 26.1427 163.361 26.1202 163.675C26.0977 163.989 26.0752 164.326 26.0752 164.641V265.298C26.0752 265.635 26.0752 265.949 26.1202 266.264C26.1427 266.578 26.2102 266.893 26.2552 267.207C26.3227 267.521 26.3902 267.813 26.4802 268.128C26.5702 268.42 26.6826 268.712 26.7951 269.004C26.9076 269.296 27.0426 269.565 27.2001 269.835C27.3576 270.104 27.5151 270.374 27.6726 270.621C27.8525 270.868 28.0325 271.115 28.2125 271.362C28.415 271.586 28.6175 271.833 28.82 272.036C29.0224 272.238 29.2699 272.462 29.4949 272.642C29.7199 272.844 29.9674 273.024 30.2373 273.181C30.4848 273.361 30.7548 273.518 31.0248 273.653C31.2948 273.81 31.5647 273.944 31.8572 274.057C32.1497 274.169 32.4422 274.281 32.7346 274.371C33.0271 274.461 33.3421 274.551 33.657 274.596C33.972 274.663 34.287 274.708 34.602 274.731C34.9169 274.753 35.2544 274.775 35.5694 274.775C35.8844 274.775 36.2218 274.775 36.5368 274.731C36.8518 274.708 37.1667 274.641 37.4817 274.596C37.7967 274.528 38.0892 274.461 38.4041 274.371C38.6966 274.281 38.9891 274.169 39.2816 274.057C39.574 273.944 39.844 273.81 40.114 273.653C40.384 273.495 40.654 273.338 40.9014 273.181C41.1489 273.001 41.3964 272.822 41.6439 272.642C41.8688 272.44 42.1163 272.238 42.3188 272.036C42.5213 271.833 42.7463 271.586 42.9263 271.362C43.1287 271.115 43.3087 270.89 43.4662 270.621C43.6462 270.374 43.8037 270.104 43.9387 269.835C44.0737 269.565 44.2311 269.296 44.3436 269.004C44.4561 268.712 44.5686 268.42 44.6586 268.128C44.7486 267.836 44.8386 267.521 44.8836 267.207C44.9511 266.893 44.9961 266.578 45.0186 266.264C45.0411 265.949 45.0636 265.612 45.0636 265.298V222.425C45.0636 218.361 49.0682 215.059 53.9728 215.059H96.1792C101.106 215.059 105.088 218.361 105.088 222.425V265.276C105.088 265.613 105.088 265.927 105.133 266.241C105.156 266.556 105.223 266.87 105.268 267.185C105.336 267.499 105.403 267.791 105.493 268.105C105.583 268.397 105.696 268.689 105.808 268.981C105.921 269.273 106.056 269.543 106.213 269.812C106.371 270.082 106.528 270.351 106.686 270.598C106.866 270.845 107.046 271.092 107.226 271.339C107.428 271.564 107.631 271.811 107.833 272.013C108.036 272.215 108.283 272.44 108.508 272.619C108.733 272.822 108.981 273.001 109.251 273.158C109.498 273.338 109.768 273.495 110.038 273.63C110.308 273.765 110.578 273.922 110.87 274.034C111.163 274.147 111.455 274.259 111.748 274.349C112.04 274.439 112.355 274.528 112.67 274.573C112.985 274.641 113.3 274.686 113.615 274.708C113.93 274.731 114.268 274.753 114.583 274.753C114.898 274.753 115.235 274.753 115.55 274.708C115.865 274.663 116.18 274.618 116.495 274.573C116.81 274.506 117.102 274.439 117.417 274.349C117.71 274.259 118.002 274.147 118.295 274.034C118.587 273.922 118.857 273.787 119.127 273.63C119.397 273.473 119.667 273.316 119.915 273.158C120.162 273.001 120.41 272.799 120.657 272.619C120.905 272.417 121.13 272.215 121.332 272.013C121.535 271.811 121.76 271.564 121.94 271.339C122.142 271.092 122.322 270.868 122.479 270.598C122.659 270.351 122.817 270.082 122.952 269.812C123.087 269.543 123.244 269.273 123.357 268.981C123.469 268.689 123.582 268.397 123.672 268.105C123.762 267.813 123.852 267.499 123.897 267.185C123.964 266.87 124.009 266.556 124.032 266.241C124.054 265.927 124.077 265.59 124.077 265.276V164.573C124.077 164.236 124.077 163.922 124.032 163.608C123.987 163.293 123.942 162.979 123.897 162.664V162.754Z" fill="#231815"/>
<path d="M482.292 133.312C482.517 133.491 482.742 133.671 482.967 133.828C483.192 133.985 483.439 134.143 483.687 134.277C483.934 134.412 484.204 134.547 484.452 134.659C484.722 134.771 484.992 134.861 485.262 134.951C485.532 135.041 485.824 135.108 486.117 135.176C486.409 135.243 486.702 135.288 486.994 135.31C487.287 135.333 487.602 135.355 487.894 135.355C488.187 135.355 488.501 135.355 488.794 135.31C489.086 135.288 489.379 135.243 489.671 135.176C489.964 135.108 490.234 135.041 490.526 134.951C490.819 134.861 491.066 134.771 491.336 134.659C491.606 134.547 491.854 134.412 492.101 134.277C492.349 134.143 492.596 133.985 492.821 133.828C493.046 133.671 493.294 133.491 493.496 133.312C493.721 133.132 493.924 132.93 494.126 132.75C494.328 132.57 494.508 132.346 494.688 132.121C494.868 131.897 495.048 131.672 495.206 131.448C495.363 131.223 495.521 130.976 495.656 130.729C495.791 130.482 495.926 130.212 496.038 129.965C496.151 129.696 496.241 129.426 496.331 129.157C496.421 128.887 496.488 128.595 496.556 128.303C496.623 128.011 496.668 127.72 496.691 127.428C496.713 127.136 496.736 126.821 496.736 126.529C496.736 126.237 496.736 125.923 496.691 125.631C496.668 125.339 496.623 125.047 496.556 124.755C496.488 124.463 496.421 124.194 496.331 123.902C496.241 123.61 496.151 123.363 496.038 123.093C495.926 122.824 495.791 122.577 495.656 122.33C495.521 122.083 495.363 121.835 495.206 121.611C495.048 121.386 494.868 121.139 494.688 120.937L449.692 68.2728C447.622 65.8473 447.825 62.4786 450.165 60.2552L491.966 20.392C491.966 20.392 492.056 20.3022 492.079 20.2573C492.124 20.2124 492.146 20.1674 492.191 20.1225C492.214 20.0776 492.259 20.0327 492.281 19.9653C492.304 19.9204 492.326 19.853 492.349 19.8081C492.371 19.7632 492.394 19.6958 492.416 19.6509C492.416 19.5835 492.439 19.5386 492.461 19.4712C492.461 19.4039 492.461 19.3589 492.484 19.2916C492.506 19.2242 492.484 19.1793 492.484 19.1119C492.484 19.0445 492.484 18.9996 492.484 18.9322C492.484 18.8649 492.484 18.8199 492.461 18.7526C492.461 18.6852 492.439 18.6403 492.416 18.5729C492.416 18.5055 492.371 18.4606 492.349 18.4157C492.326 18.3708 492.304 18.3034 492.281 18.2585C492.259 18.2136 492.214 18.1687 492.191 18.1013C492.169 18.0564 492.124 18.0115 492.079 17.9665C492.034 17.9216 492.011 17.8767 491.966 17.8318C491.921 17.7869 491.876 17.742 491.831 17.7195C491.786 17.6746 491.741 17.6521 491.696 17.6072C491.651 17.5847 491.606 17.5398 491.539 17.5174C491.494 17.4949 491.426 17.4725 491.381 17.45C491.336 17.4275 491.269 17.4051 491.224 17.3826C491.156 17.3826 491.111 17.3602 491.044 17.3377C490.976 17.3377 490.931 17.3377 490.864 17.3152C490.796 17.2928 490.751 17.3152 490.684 17.3152C490.616 17.3152 490.571 17.3152 490.504 17.3152C490.436 17.3152 490.391 17.3152 490.324 17.3377C490.256 17.3377 490.211 17.3602 490.144 17.3826C490.076 17.3826 490.031 17.4275 489.986 17.45C489.941 17.4725 489.874 17.4949 489.829 17.5174C489.784 17.5398 489.739 17.5847 489.671 17.6072C489.626 17.6297 489.581 17.6746 489.536 17.7195C489.491 17.7644 489.446 17.7869 489.401 17.8318L443.775 61.3557L431.806 72.7869C431.581 73.0115 431.244 73.1237 430.906 73.1237C430.749 73.1237 430.614 73.1013 430.479 73.0564C430.006 72.8992 429.692 72.5174 429.692 72.0682V25.0858C429.692 24.7489 429.692 24.4345 429.647 24.1201C429.602 23.8057 429.557 23.4912 429.512 23.1768C429.444 22.8624 429.377 22.5705 429.287 22.256C429.197 21.9641 429.084 21.6721 428.972 21.3802C428.859 21.0882 428.724 20.8187 428.567 20.5492C428.409 20.2797 428.252 20.0102 428.094 19.7632C427.914 19.5161 427.734 19.2691 427.554 19.0221C427.352 18.775 427.149 18.5504 426.947 18.3483C426.744 18.1462 426.497 17.9216 426.272 17.742C426.024 17.5398 425.799 17.3602 425.529 17.203C425.282 17.0233 425.012 16.8661 424.742 16.7313C424.472 16.5966 424.202 16.4394 423.909 16.3271C423.617 16.2148 423.325 16.1025 423.032 16.0127C422.74 15.9228 422.425 15.833 422.11 15.7881C421.795 15.7207 421.48 15.6758 421.165 15.6533C420.85 15.6309 420.512 15.6084 420.197 15.6084C419.882 15.6084 419.545 15.6084 419.23 15.6533C418.915 15.6758 418.6 15.7432 418.285 15.7881C417.97 15.8555 417.678 15.9228 417.363 16.0127C417.07 16.1025 416.778 16.2148 416.485 16.3271C416.193 16.4394 415.923 16.5741 415.653 16.7313C415.383 16.8885 415.113 17.0458 414.865 17.203C414.618 17.3826 414.37 17.5623 414.123 17.742C413.898 17.9441 413.65 18.1462 413.448 18.3483C413.245 18.5504 413.02 18.7975 412.84 19.0221C412.638 19.2466 412.458 19.4937 412.3 19.7632C412.12 20.0102 411.963 20.2797 411.828 20.5492C411.693 20.8187 411.536 21.0882 411.423 21.3802C411.311 21.6721 411.198 21.9641 411.108 22.256C411.018 22.548 410.928 22.8624 410.883 23.1768C410.816 23.4912 410.771 23.8057 410.748 24.1201C410.726 24.4345 410.703 24.7714 410.703 25.0858V125.743C410.703 126.08 410.703 126.394 410.748 126.709C410.793 127.023 410.838 127.338 410.883 127.652C410.951 127.967 411.018 128.258 411.108 128.573C411.198 128.865 411.311 129.157 411.423 129.449C411.536 129.741 411.671 130.01 411.828 130.28C411.986 130.549 412.143 130.819 412.3 131.066C412.458 131.313 412.66 131.56 412.84 131.807C413.043 132.054 413.245 132.279 413.448 132.481C413.65 132.683 413.898 132.907 414.123 133.087C414.37 133.289 414.595 133.469 414.865 133.626C415.113 133.806 415.383 133.963 415.653 134.098C415.923 134.255 416.193 134.39 416.485 134.502C416.778 134.614 417.07 134.726 417.363 134.816C417.655 134.906 417.97 134.996 418.285 135.041C418.6 135.108 418.915 135.153 419.23 135.176C419.545 135.198 419.882 135.221 420.197 135.221C420.512 135.221 420.85 135.221 421.165 135.176C421.48 135.131 421.795 135.086 422.11 135.041C422.425 134.973 422.717 134.906 423.032 134.816C423.325 134.726 423.617 134.614 423.909 134.502C424.202 134.39 424.472 134.255 424.742 134.098C425.012 133.94 425.282 133.783 425.529 133.626C425.777 133.446 426.024 133.267 426.272 133.087C426.497 132.885 426.744 132.683 426.947 132.481C427.149 132.279 427.374 132.031 427.554 131.807C427.757 131.582 427.937 131.335 428.094 131.066C428.252 130.796 428.432 130.549 428.567 130.28C428.702 130.01 428.859 129.741 428.972 129.449C429.084 129.157 429.197 128.865 429.287 128.573C429.377 128.281 429.467 127.967 429.512 127.652C429.579 127.338 429.624 127.023 429.647 126.709C429.669 126.394 429.692 126.058 429.692 125.743V75.2124C429.692 74.7632 430.029 74.3589 430.524 74.2017C430.659 74.1568 430.771 74.1568 430.906 74.1568C431.289 74.1568 431.649 74.314 431.874 74.5835L433.269 76.223L481.257 132.413C481.257 132.413 481.437 132.615 481.527 132.705C481.73 132.907 481.932 133.087 482.157 133.267L482.292 133.312Z" fill="#231815"/>
<path d="M371.556 131.29C371.556 131.29 371.578 131.335 371.601 131.358C371.758 131.605 371.938 131.829 372.118 132.054C372.298 132.278 372.501 132.503 372.703 132.705C372.906 132.907 373.131 133.109 373.356 133.289C373.581 133.469 373.806 133.648 374.053 133.806C374.301 133.963 374.548 134.12 374.796 134.255C375.043 134.39 375.313 134.524 375.583 134.637C375.853 134.749 376.123 134.861 376.416 134.951C376.708 135.041 376.978 135.108 377.293 135.176C377.585 135.243 377.878 135.288 378.193 135.31C378.508 135.333 378.8 135.355 379.115 135.355C379.43 135.355 379.745 135.355 380.038 135.31C380.353 135.288 380.645 135.243 380.938 135.176C381.23 135.108 381.523 135.041 381.815 134.951C382.108 134.861 382.378 134.771 382.648 134.637C382.917 134.524 383.187 134.39 383.435 134.255C383.682 134.12 383.952 133.963 384.177 133.806C384.425 133.648 384.65 133.469 384.875 133.289C385.1 133.109 385.302 132.907 385.527 132.705C385.752 132.503 385.932 132.278 386.112 132.054C386.292 131.829 386.472 131.605 386.63 131.358C386.787 131.111 386.945 130.864 387.08 130.617C387.215 130.37 387.35 130.1 387.462 129.831C387.575 129.561 387.687 129.292 387.777 129C387.867 128.708 387.935 128.438 388.002 128.124C388.07 127.832 388.115 127.54 388.137 127.225C388.16 126.911 388.182 126.619 388.182 126.305C388.182 125.99 388.182 125.676 388.137 125.384C388.092 125.092 388.07 124.777 388.002 124.486C387.935 124.194 387.867 123.902 387.777 123.61C387.687 123.318 387.597 123.048 387.462 122.779C387.35 122.509 387.215 122.24 387.08 121.993C386.945 121.746 386.787 121.499 386.63 121.252L373.491 101.511C373.401 101.331 363.772 84.6672 345.391 81.0964C344.806 80.9841 344.401 80.5125 344.446 79.9735C344.491 79.4569 344.986 79.0302 345.593 79.0078C366.719 78.0645 382.355 66.6109 383.592 51.1821C384.38 41.4353 381.793 33.7321 375.921 28.2748C364.829 17.9665 343.703 16.6415 326.537 16.6415C320.823 16.6415 315.153 16.7987 309.304 17.0008C308.966 17.0008 308.651 17.0008 308.336 17.0457C308.021 17.0682 307.706 17.1356 307.391 17.1805C307.076 17.2479 306.784 17.3152 306.469 17.4051C306.154 17.4949 305.884 17.6072 305.592 17.7195C305.299 17.8318 305.029 17.9665 304.759 18.1237C304.489 18.2809 304.219 18.4381 303.972 18.5953C303.724 18.775 303.477 18.9547 303.229 19.1343C303.004 19.3365 302.757 19.5386 302.554 19.7407C302.352 19.9428 302.127 20.1899 301.947 20.4144C301.744 20.639 301.564 20.8861 301.407 21.1556C301.227 21.4026 301.069 21.6721 300.934 21.9416C300.799 22.2111 300.642 22.4806 300.53 22.7726C300.417 23.0645 300.305 23.3565 300.215 23.6484C300.125 23.9404 300.035 24.2548 299.99 24.5692C299.922 24.8836 299.877 25.198 299.855 25.5124C299.832 25.8269 299.81 26.1637 299.81 26.4781V125.698C299.81 126.035 299.81 126.35 299.855 126.664C299.9 126.978 299.945 127.293 299.99 127.607C300.057 127.922 300.125 128.214 300.215 128.528C300.305 128.82 300.417 129.112 300.53 129.404C300.642 129.696 300.777 129.965 300.934 130.235C301.092 130.504 301.249 130.774 301.407 131.021C301.587 131.268 301.767 131.515 301.947 131.762C302.149 131.987 302.352 132.234 302.554 132.436C302.757 132.638 303.004 132.862 303.229 133.042C303.454 133.244 303.702 133.424 303.972 133.581C304.219 133.761 304.489 133.918 304.759 134.053C305.029 134.187 305.299 134.345 305.592 134.457C305.884 134.569 306.177 134.682 306.469 134.771C306.761 134.861 307.076 134.951 307.391 134.996C307.706 135.063 308.021 135.108 308.336 135.131C308.651 135.153 308.989 135.176 309.304 135.176C309.619 135.176 309.956 135.176 310.271 135.131C310.586 135.086 310.901 135.041 311.216 134.996C311.531 134.929 311.824 134.861 312.139 134.771C312.431 134.682 312.723 134.569 313.016 134.457C313.308 134.345 313.578 134.21 313.848 134.053C314.118 133.895 314.388 133.738 314.636 133.581C314.883 133.401 315.131 133.222 315.378 133.042C315.626 132.84 315.851 132.638 316.053 132.436C316.256 132.234 316.481 131.987 316.661 131.762C316.863 131.515 317.043 131.29 317.201 131.021C317.381 130.774 317.538 130.504 317.673 130.235C317.831 129.965 317.966 129.696 318.078 129.404C318.191 129.112 318.303 128.82 318.393 128.528C318.483 128.236 318.573 127.922 318.618 127.607C318.685 127.293 318.73 126.978 318.753 126.664C318.775 126.35 318.798 126.013 318.798 125.698V87.5643C318.865 86.5088 319.473 82.9155 324.805 81.2311C326.447 80.7146 328.067 80.4451 329.665 80.4451C338.124 80.4451 342.533 87.6766 342.691 87.9461L371.466 131.223L371.556 131.29ZM335.019 78.5137C333.534 78.6035 332.072 78.6484 330.699 78.6484C323.343 78.6484 319.473 77.4132 318.91 74.8755C318.91 74.8081 318.888 74.7407 318.888 74.6733L318.933 26.5006C319.608 22.9073 324.467 19.8081 328.675 19.314C330.969 19.0445 333.197 18.9098 335.289 18.9098C351.308 18.9098 360.712 26.7926 362.512 41.7048C364.109 54.8203 361.949 64.2303 355.965 70.4063C351.285 75.2348 344.243 77.9522 335.042 78.5137H335.019Z" fill="#231815"/>
<path d="M338.799 263.681C338.731 263.389 338.664 263.097 338.574 262.805C338.484 262.513 338.394 262.244 338.259 261.974C338.147 261.705 338.011 261.435 337.876 261.188C337.742 260.941 337.584 260.694 337.427 260.447L324.288 240.706C324.198 240.527 314.568 223.863 296.188 220.292C295.603 220.18 295.198 219.708 295.243 219.169C295.288 218.653 295.783 218.226 296.39 218.203C317.516 217.26 333.152 205.806 334.389 190.378C335.177 180.631 332.589 172.928 326.717 167.47C315.626 157.162 294.5 155.837 277.334 155.837C271.62 155.837 265.95 155.994 260.101 156.196C259.763 156.196 259.448 156.196 259.133 156.241C258.818 156.264 258.503 156.331 258.188 156.376C257.873 156.443 257.581 156.511 257.266 156.601C256.951 156.691 256.681 156.803 256.388 156.915C256.096 157.027 255.826 157.162 255.556 157.319C255.286 157.477 255.016 157.634 254.769 157.791C254.521 157.971 254.274 158.15 254.026 158.33C253.801 158.532 253.554 158.734 253.351 158.936C253.149 159.138 252.924 159.385 252.744 159.61C252.541 159.835 252.361 160.082 252.204 160.351C252.024 160.598 251.866 160.868 251.731 161.137C251.596 161.407 251.439 161.676 251.326 161.968C251.214 162.26 251.101 162.552 251.011 162.844C250.921 163.136 250.831 163.45 250.786 163.765C250.719 164.079 250.674 164.394 250.651 164.708C250.629 165.022 250.606 165.359 250.606 165.674V264.894C250.606 265.231 250.606 265.545 250.651 265.86C250.696 266.174 250.741 266.488 250.786 266.803C250.854 267.117 250.921 267.409 251.011 267.724C251.101 268.016 251.214 268.307 251.326 268.599C251.439 268.891 251.574 269.161 251.731 269.43C251.889 269.7 252.046 269.969 252.204 270.216C252.384 270.463 252.564 270.711 252.744 270.958C252.946 271.182 253.149 271.429 253.351 271.631C253.554 271.833 253.801 272.058 254.026 272.238C254.251 272.44 254.499 272.619 254.769 272.777C255.016 272.956 255.286 273.114 255.556 273.248C255.826 273.383 256.096 273.54 256.388 273.653C256.681 273.765 256.973 273.877 257.266 273.967C257.558 274.057 257.873 274.147 258.188 274.192C258.503 274.259 258.818 274.304 259.133 274.326C259.448 274.349 259.786 274.371 260.101 274.371C260.416 274.371 260.753 274.371 261.068 274.326C261.383 274.281 261.698 274.236 262.013 274.192C262.328 274.124 262.62 274.057 262.935 273.967C263.228 273.877 263.52 273.765 263.813 273.653C264.105 273.54 264.375 273.405 264.645 273.248C264.915 273.091 265.185 272.934 265.433 272.777C265.68 272.597 265.928 272.417 266.175 272.238C266.423 272.036 266.648 271.833 266.85 271.631C267.053 271.429 267.278 271.182 267.458 270.958C267.66 270.711 267.84 270.486 267.997 270.216C268.177 269.969 268.335 269.7 268.47 269.43C268.627 269.161 268.762 268.891 268.875 268.599C268.987 268.307 269.1 268.016 269.19 267.724C269.28 267.432 269.37 267.117 269.415 266.803C269.482 266.488 269.527 266.174 269.55 265.86C269.572 265.545 269.595 265.208 269.595 264.894V226.76C269.662 225.704 270.27 222.111 275.602 220.427C277.244 219.91 278.864 219.641 280.461 219.641C288.921 219.641 293.33 226.872 293.488 227.142L322.263 270.419C322.263 270.419 322.285 270.463 322.308 270.486C322.465 270.733 322.645 270.958 322.825 271.182C323.005 271.407 323.208 271.631 323.41 271.833C323.613 272.036 323.838 272.238 324.063 272.417C324.288 272.597 324.513 272.777 324.76 272.934C325.008 273.091 325.255 273.248 325.503 273.383C325.75 273.518 326.02 273.653 326.29 273.765C326.56 273.877 326.83 273.989 327.122 274.079C327.415 274.169 327.685 274.236 328 274.304C328.292 274.371 328.585 274.416 328.9 274.439C329.215 274.461 329.507 274.483 329.822 274.483C330.137 274.483 330.452 274.483 330.745 274.439C331.06 274.416 331.352 274.371 331.645 274.304C331.937 274.236 332.229 274.169 332.522 274.079C332.814 273.989 333.084 273.9 333.354 273.765C333.624 273.653 333.894 273.518 334.142 273.383C334.389 273.248 334.659 273.091 334.884 272.934C335.132 272.777 335.357 272.597 335.582 272.417C335.807 272.238 336.009 272.036 336.234 271.833C336.459 271.631 336.639 271.407 336.819 271.182C336.999 270.958 337.179 270.733 337.337 270.486C337.494 270.239 337.652 269.992 337.787 269.745C337.922 269.498 338.056 269.228 338.169 268.959C338.281 268.689 338.394 268.42 338.484 268.128C338.574 267.836 338.641 267.566 338.709 267.252C338.776 266.96 338.821 266.668 338.844 266.354C338.866 266.039 338.889 265.747 338.889 265.433C338.889 265.118 338.889 264.804 338.844 264.512C338.799 264.22 338.776 263.906 338.709 263.614L338.799 263.681ZM285.838 217.732C284.354 217.822 282.891 217.867 281.519 217.867C274.162 217.867 270.292 216.631 269.73 214.094C269.73 214.026 269.707 213.959 269.707 213.891L269.752 165.719C270.427 162.125 275.287 159.026 279.494 158.532C281.789 158.263 284.016 158.128 286.108 158.128C302.127 158.128 311.531 166.011 313.331 180.923C314.928 194.038 312.769 203.448 306.784 209.624C302.105 214.453 295.063 217.17 285.861 217.732H285.838Z" fill="#231815"/>
<path d="M613.523 131.111C613.703 131.358 613.883 131.605 614.063 131.852C614.266 132.076 614.468 132.323 614.671 132.526C614.873 132.728 615.121 132.952 615.346 133.132C615.571 133.334 615.818 133.514 616.088 133.671C616.336 133.851 616.606 134.008 616.875 134.143C617.145 134.277 617.415 134.434 617.708 134.547C618 134.659 618.293 134.771 618.585 134.861C618.878 134.951 619.193 135.041 619.508 135.086C619.823 135.153 620.138 135.198 620.453 135.221C620.768 135.243 621.105 135.265 621.42 135.265C621.735 135.265 622.073 135.265 622.388 135.221C622.703 135.176 623.017 135.131 623.332 135.086C623.647 135.018 623.94 134.951 624.255 134.861C624.547 134.771 624.84 134.659 625.132 134.547C625.425 134.434 625.695 134.3 625.965 134.143C626.235 133.985 626.505 133.828 626.752 133.671C627 133.491 627.247 133.312 627.495 133.132C627.742 132.93 627.967 132.728 628.169 132.526C628.372 132.323 628.597 132.076 628.777 131.852C628.979 131.605 629.159 131.38 629.317 131.111C629.497 130.864 629.654 130.594 629.789 130.325C629.947 130.055 630.082 129.786 630.194 129.494C630.307 129.202 630.419 128.91 630.509 128.618C630.599 128.326 630.689 128.011 630.734 127.697C630.802 127.383 630.847 127.068 630.869 126.754C630.892 126.439 630.914 126.102 630.914 125.788V87.6541C630.982 86.5986 631.589 83.0053 636.921 81.3209C638.564 80.8044 640.184 80.5349 641.781 80.5349C650.24 80.5349 654.65 87.7664 654.807 88.0359L683.582 131.313C683.582 131.313 683.605 131.358 683.627 131.38C683.785 131.627 683.965 131.852 684.145 132.076C684.325 132.301 684.527 132.526 684.73 132.728C684.932 132.93 685.157 133.132 685.382 133.312C685.607 133.491 685.832 133.671 686.08 133.828C686.327 133.985 686.575 134.143 686.822 134.277C687.069 134.412 687.339 134.547 687.609 134.659C687.879 134.771 688.149 134.884 688.442 134.973C688.734 135.063 689.004 135.131 689.319 135.198C689.612 135.265 689.904 135.31 690.219 135.333C690.534 135.355 690.827 135.378 691.142 135.378C691.457 135.378 691.772 135.378 692.064 135.333C692.379 135.31 692.672 135.265 692.964 135.198C693.256 135.131 693.549 135.063 693.841 134.973C694.134 134.884 694.404 134.794 694.674 134.659C694.944 134.547 695.214 134.412 695.461 134.277C695.709 134.143 695.979 133.985 696.204 133.828C696.451 133.671 696.676 133.491 696.901 133.312C697.126 133.132 697.329 132.93 697.554 132.728C697.779 132.526 697.959 132.301 698.139 132.076C698.319 131.852 698.499 131.627 698.656 131.38C698.814 131.133 698.971 130.886 699.106 130.639C699.241 130.392 699.376 130.123 699.488 129.853C699.601 129.584 699.713 129.314 699.803 129.022C699.893 128.73 699.961 128.461 700.028 128.146C700.096 127.854 700.141 127.562 700.163 127.248C700.186 126.933 700.208 126.641 700.208 126.327C700.208 126.013 700.208 125.698 700.163 125.406C700.118 125.114 700.096 124.8 700.028 124.508C699.961 124.216 699.893 123.924 699.803 123.632C699.713 123.34 699.623 123.071 699.488 122.801C699.376 122.532 699.241 122.262 699.106 122.015C698.971 121.768 698.814 121.521 698.656 121.274L685.517 101.533C685.427 101.354 675.798 84.6897 657.417 81.1188C656.832 81.0065 656.427 80.5349 656.472 79.9959C656.517 79.4794 657.012 79.0527 657.619 79.0302C678.745 78.087 694.381 66.6333 695.619 51.2046C696.406 41.4577 693.819 33.7546 687.947 28.2973C676.855 17.989 655.73 16.6639 638.564 16.6639C632.849 16.6639 627.18 16.8211 621.33 17.0233C620.993 17.0233 620.678 17.0233 620.363 17.0682C620.048 17.0906 619.733 17.158 619.418 17.2029C619.103 17.2703 618.81 17.3377 618.495 17.4275C618.18 17.5174 617.91 17.6296 617.618 17.7419C617.325 17.8542 617.055 17.989 616.785 18.1462C616.515 18.3034 616.246 18.4606 615.998 18.6178C615.751 18.7975 615.503 18.9771 615.256 19.1568C615.031 19.3589 614.783 19.561 614.581 19.7632C614.378 19.9653 614.153 20.2123 613.973 20.4369C613.771 20.6615 613.591 20.9085 613.433 21.178C613.253 21.4251 613.096 21.6946 612.961 21.9641C612.826 22.2336 612.668 22.5031 612.556 22.795C612.443 23.087 612.331 23.3789 612.241 23.6709C612.151 23.9628 612.061 24.2773 612.016 24.5917C611.948 24.9061 611.903 25.2205 611.881 25.5349C611.858 25.8493 611.836 26.1862 611.836 26.5006V125.721C611.836 126.058 611.836 126.372 611.881 126.686C611.926 127.001 611.971 127.315 612.016 127.63C612.083 127.944 612.151 128.236 612.241 128.55C612.331 128.842 612.443 129.134 612.556 129.426C612.668 129.718 612.803 129.988 612.961 130.257C613.118 130.527 613.276 130.796 613.433 131.043L613.523 131.111ZM631.072 26.5231C631.747 22.9298 636.606 19.8305 640.813 19.3365C643.108 19.067 645.336 18.9322 647.428 18.9322C663.446 18.9322 672.851 26.815 674.651 41.7272C676.248 54.8428 674.088 64.2528 668.104 70.4287C663.424 75.2572 656.382 77.9747 647.18 78.5361C645.696 78.626 644.233 78.6709 642.861 78.6709C635.504 78.6709 631.634 77.4357 631.072 74.8979C631.072 74.8305 631.049 74.7632 631.049 74.6958L631.094 26.5231H631.072Z" fill="#231815"/>
<path d="M470.57 162.754C470.502 162.44 470.435 162.148 470.345 161.833C470.255 161.541 470.142 161.249 470.03 160.958C469.917 160.666 469.782 160.396 469.625 160.127C469.467 159.857 469.31 159.588 469.152 159.341C468.972 159.093 468.792 158.846 468.613 158.599C468.41 158.375 468.208 158.128 468.005 157.926C467.803 157.724 467.555 157.499 467.33 157.319C467.083 157.117 466.858 156.938 466.588 156.78C466.34 156.601 466.07 156.443 465.8 156.309C465.53 156.151 465.26 156.017 464.968 155.904C464.675 155.792 464.383 155.68 464.09 155.59C463.798 155.5 463.483 155.41 463.168 155.365C462.853 155.298 462.538 155.253 462.223 155.231C461.908 155.208 461.571 155.186 461.256 155.186C460.941 155.186 460.603 155.186 460.288 155.231C459.973 155.276 459.658 155.321 459.343 155.365C459.028 155.433 458.736 155.5 458.421 155.59C458.128 155.68 457.836 155.792 457.543 155.904C457.251 156.017 456.981 156.151 456.711 156.309C456.441 156.466 456.171 156.623 455.924 156.78C455.676 156.96 455.429 157.14 455.181 157.319C454.956 157.521 454.709 157.724 454.506 157.926C454.304 158.128 454.079 158.375 453.899 158.599C453.696 158.846 453.516 159.071 453.359 159.341C453.179 159.588 453.021 159.857 452.886 160.127C452.729 160.396 452.594 160.666 452.481 160.958L415.045 253.822V253.665C414.932 254.091 414.482 254.406 413.965 254.406C413.447 254.406 412.997 254.114 412.862 253.687L371.871 161.047C371.758 160.755 371.601 160.463 371.466 160.194C371.331 159.924 371.151 159.655 370.971 159.385C370.791 159.116 370.611 158.869 370.408 158.644C370.206 158.397 370.003 158.173 369.778 157.948C369.553 157.724 369.328 157.521 369.081 157.319C368.834 157.117 368.586 156.938 368.339 156.758C368.069 156.578 367.821 156.421 367.529 156.264C367.259 156.107 366.966 155.972 366.674 155.86C366.381 155.747 366.089 155.635 365.774 155.523C365.459 155.433 365.166 155.343 364.851 155.276C364.536 155.208 364.221 155.163 363.884 155.118C363.546 155.096 363.232 155.073 362.894 155.073C362.557 155.073 362.219 155.073 361.904 155.118C361.589 155.163 361.252 155.208 360.937 155.276C360.622 155.343 360.307 155.41 360.014 155.523C359.699 155.612 359.407 155.725 359.114 155.86C358.822 155.972 358.529 156.129 358.259 156.264C357.989 156.421 357.719 156.578 357.45 156.758C357.18 156.938 356.932 157.117 356.707 157.319C356.482 157.521 356.235 157.724 356.01 157.948C355.785 158.173 355.582 158.397 355.38 158.644C355.177 158.891 354.997 159.138 354.817 159.385C354.637 159.655 354.48 159.902 354.322 160.194C354.165 160.463 354.03 160.755 353.917 161.047C353.805 161.339 353.692 161.631 353.58 161.946C353.49 162.26 353.4 162.552 353.332 162.866C353.265 163.181 353.22 163.495 353.175 163.832C353.152 164.169 353.13 164.483 353.13 164.82C353.13 165.157 353.13 165.494 353.175 165.808V272.507C353.175 272.507 353.175 272.642 353.175 272.709C353.175 272.777 353.175 272.844 353.197 272.911C353.22 272.979 353.22 273.046 353.242 273.091C353.242 273.158 353.287 273.203 353.31 273.271C353.332 273.338 353.355 273.383 353.4 273.45C353.422 273.495 353.467 273.563 353.49 273.608C353.535 273.652 353.557 273.72 353.602 273.765C353.647 273.81 353.692 273.855 353.737 273.9C353.782 273.944 353.827 273.989 353.872 274.034C353.917 274.079 353.962 274.102 354.03 274.147C354.075 274.191 354.142 274.214 354.187 274.236C354.232 274.259 354.3 274.304 354.367 274.326C354.435 274.349 354.48 274.371 354.547 274.394C354.615 274.416 354.682 274.439 354.727 274.439C354.795 274.439 354.862 274.461 354.93 274.461C354.997 274.461 355.065 274.461 355.132 274.461C355.2 274.461 355.267 274.461 355.335 274.461C355.402 274.461 355.47 274.461 355.537 274.439C355.605 274.439 355.672 274.416 355.717 274.394C355.762 274.371 355.83 274.349 355.897 274.326C355.965 274.304 356.01 274.281 356.077 274.236C356.122 274.214 356.19 274.169 356.235 274.147C356.28 274.102 356.347 274.079 356.392 274.034C356.437 273.989 356.482 273.944 356.527 273.9C356.572 273.855 356.617 273.81 356.662 273.765C356.707 273.72 356.73 273.675 356.775 273.608C356.82 273.563 356.842 273.495 356.865 273.45C356.887 273.405 356.932 273.338 356.955 273.271C356.977 273.203 357 273.158 357.022 273.091C357.022 273.024 357.067 272.956 357.067 272.911C357.067 272.866 357.09 272.777 357.09 272.709C357.09 272.642 357.09 272.574 357.09 272.507V179.194C357.09 178.677 357.517 178.25 358.079 178.138C358.147 178.138 358.237 178.138 358.304 178.138C358.799 178.138 359.249 178.407 359.452 178.812L400.601 270.104C400.893 270.8 401.321 271.429 401.838 271.946C402.356 272.462 402.986 272.889 403.683 273.181C404.38 273.473 405.145 273.63 405.955 273.63C406.765 273.63 407.53 273.473 408.228 273.181C408.925 272.889 409.555 272.462 410.073 271.946C410.59 271.429 411.017 270.8 411.31 270.104L449.377 177.532C449.534 177.127 449.984 176.858 450.479 176.858C450.547 176.858 450.614 176.858 450.682 176.858C451.244 176.948 451.649 177.352 451.649 177.846V265.298C451.649 265.635 451.649 265.949 451.694 266.264C451.739 266.578 451.784 266.893 451.829 267.207C451.896 267.521 451.964 267.813 452.054 268.128C452.144 268.42 452.256 268.712 452.369 269.004C452.481 269.296 452.616 269.565 452.774 269.835C452.931 270.104 453.089 270.374 453.246 270.621C453.426 270.868 453.606 271.115 453.786 271.362C453.989 271.586 454.191 271.833 454.394 272.035C454.596 272.238 454.844 272.462 455.069 272.642C455.294 272.844 455.541 273.024 455.811 273.181C456.059 273.361 456.329 273.518 456.599 273.652C456.869 273.787 457.139 273.944 457.431 274.057C457.723 274.169 458.016 274.281 458.308 274.371C458.601 274.461 458.916 274.551 459.231 274.596C459.546 274.663 459.861 274.708 460.176 274.73C460.491 274.753 460.828 274.775 461.143 274.775C461.458 274.775 461.796 274.775 462.111 274.73C462.426 274.686 462.741 274.641 463.056 274.596C463.37 274.528 463.663 274.461 463.978 274.371C464.27 274.281 464.563 274.169 464.855 274.057C465.148 273.944 465.418 273.81 465.688 273.652C465.958 273.495 466.228 273.338 466.475 273.181C466.723 273.001 466.97 272.822 467.218 272.642C467.443 272.44 467.69 272.238 467.893 272.035C468.095 271.833 468.32 271.586 468.5 271.362C468.703 271.115 468.882 270.89 469.04 270.621C469.22 270.374 469.377 270.104 469.512 269.835C469.647 269.565 469.805 269.296 469.917 269.004C470.03 268.712 470.142 268.42 470.232 268.128C470.322 267.836 470.412 267.521 470.457 267.207C470.525 266.893 470.57 266.578 470.592 266.264C470.615 265.949 470.637 265.612 470.637 265.298V164.596C470.637 164.259 470.637 163.944 470.592 163.63C470.57 163.316 470.502 163.001 470.457 162.687L470.57 162.754Z" fill="#231815"/>
<path d="M542.654 154.265C541.011 154.265 539.324 154.31 537.637 154.422C514.014 155.882 496.173 167.717 487.376 187.728C476.644 212.162 482.606 243.177 501.257 259.841C512.034 269.475 527.108 275 542.586 275.022C555.185 275.022 566.952 271.452 576.671 264.669C599.034 249.061 607.471 216.519 596.289 188.985C587.335 166.931 567.784 154.287 542.654 154.287V154.265ZM576.716 227.074C573.611 264.804 556.288 272.822 542.316 272.934H542.046C533.97 272.934 527.085 270.441 521.618 265.5C506.612 251.958 505.554 223.279 506.252 207.401C507.669 175.847 518.828 158.263 538.514 156.578C539.707 156.466 540.921 156.421 542.069 156.421C550.168 156.421 557.008 158.981 562.407 164.012C578.763 179.261 577.863 213.195 576.716 227.074Z" fill="#231815"/>
<path d="M845.567 3.81789C834.296 -6.75989 817.917 6.62516 825.949 19.9428C828.176 23.626 834.071 24.704 834.071 29.0833C834.071 33.4626 832.023 37.4153 830.133 40.2001C828.154 43.1646 824.171 46.5108 825.454 47.8134C826.939 49.3406 830.786 46.6231 832.991 44.9837C843.137 37.3928 857.334 14.8673 845.567 3.81789Z" fill="#231815"/>
<path d="M179.422 120.982C190.199 130.617 205.273 136.141 220.751 136.164C233.35 136.164 245.117 132.593 254.836 125.811C277.199 110.202 285.636 77.6603 274.454 50.1266C265.5 28.0727 245.949 15.4287 220.819 15.4287C219.177 15.4287 217.489 15.4737 215.802 15.5859C192.179 17.0457 174.338 28.8812 165.541 48.8914C154.809 73.3258 160.771 104.341 179.422 121.004V120.982ZM184.439 68.5198C185.857 36.9661 197.016 19.3814 216.702 17.697C217.894 17.5847 219.109 17.5398 220.256 17.5398C228.356 17.5398 235.195 20.1 240.595 25.1307C256.951 40.3797 256.051 74.314 254.903 88.1931C251.799 125.923 234.475 133.94 220.504 134.053H220.234C212.157 134.053 205.273 131.56 199.806 126.619C184.799 113.077 183.742 84.3977 184.439 68.5198Z" fill="#231815"/>
<path d="M764.373 136.029C766.6 136.029 768.715 135.939 770.695 135.737C788.626 134.008 803.07 124.553 807.502 111.639C811.439 100.163 806.602 88.1707 794.566 79.5243C789.189 75.684 781.449 72.2479 773.237 68.6321C753.709 59.9857 731.571 50.2164 737.285 31.4639C740.21 21.8967 750.492 17.6072 759.401 17.6072C768.918 17.6072 777.31 22.0315 781.292 29.1507C782.259 30.8575 782.979 33.1482 783.744 35.5513C785.521 41.1658 787.546 47.5439 792.946 48.1503C793.621 48.2177 794.251 48.2626 794.836 48.2626C797.49 48.2626 799.583 47.5215 801.045 46.0841C802.98 44.1527 803.79 40.9412 803.227 37.2356C800.82 21.3577 775.33 15.586 758.794 15.586C756.904 15.586 755.081 15.6533 753.372 15.8105C738.23 17.0682 725.227 25.0408 720.254 36.0678C715.98 45.5451 718.387 55.6962 726.869 63.8934C732.786 69.6203 743.09 74.4937 754.002 79.6591C770.92 87.6766 788.424 95.9412 789.998 108.293C790.921 115.502 788.829 121.791 783.991 126.507C779.087 131.268 771.685 133.985 763.676 133.985C751.774 133.985 741.583 128.079 737.105 118.601C736.161 116.603 735.553 114.245 734.946 111.931C733.303 105.643 731.751 99.7142 724.192 99.7142C723.652 99.7142 723.067 99.7366 722.459 99.804C717.555 100.298 714.765 106.092 714.922 110.022C715.642 127.944 744.282 136.007 764.373 136.007V136.029Z" fill="#231815"/>
<path d="M517.996 124.351C517.996 124.688 517.996 125.002 518.041 125.316C518.064 125.631 518.131 125.945 518.176 126.26C518.244 126.574 518.311 126.866 518.401 127.18C518.491 127.472 518.604 127.764 518.716 128.056C518.829 128.348 518.964 128.618 519.121 128.887C519.278 129.157 519.436 129.426 519.593 129.673C519.773 129.92 519.953 130.167 520.133 130.414C520.336 130.662 520.538 130.886 520.741 131.088C520.943 131.29 521.191 131.515 521.416 131.695C521.641 131.897 521.888 132.076 522.158 132.234C522.406 132.413 522.676 132.57 522.946 132.705C523.216 132.84 523.486 132.997 523.778 133.109C524.071 133.222 524.363 133.334 524.656 133.424C524.948 133.514 525.263 133.604 525.578 133.648C525.893 133.716 526.208 133.761 526.523 133.783C526.838 133.806 527.175 133.828 527.49 133.828H594.085C595.187 133.828 596.087 133.109 596.087 132.256C596.087 131.403 595.187 130.684 594.085 130.684H546.006C541.079 130.684 537.052 127.36 537.052 123.295V81.7477C537.052 77.6827 541.079 74.3589 546.006 74.3589H581.238C582.341 74.3589 583.241 73.6403 583.241 72.7869C583.241 71.9334 582.341 71.2148 581.238 71.2148H546.006C541.079 71.2148 537.052 67.891 537.052 63.8261V27.8032C537.052 23.7383 541.079 20.4145 546.006 20.4145H591.52C592.622 20.4145 593.522 19.6958 593.522 18.8424C593.522 17.989 592.622 17.2703 591.52 17.2703H527.49C527.153 17.2703 526.838 17.2703 526.523 17.3152C526.208 17.3602 525.893 17.4051 525.578 17.45C525.263 17.5174 524.97 17.5847 524.656 17.6746C524.363 17.7644 524.071 17.8767 523.778 17.989C523.486 18.1013 523.216 18.236 522.946 18.3932C522.676 18.5504 522.406 18.7076 522.158 18.8649C521.911 19.0445 521.663 19.2242 521.416 19.4038C521.168 19.606 520.943 19.8081 520.741 20.0102C520.538 20.2123 520.313 20.4594 520.133 20.684C519.953 20.9085 519.751 21.1556 519.593 21.4251C519.413 21.6721 519.256 21.9416 519.121 22.2111C518.986 22.4806 518.829 22.7501 518.716 23.0421C518.604 23.334 518.491 23.626 518.401 23.9179C518.311 24.2099 518.221 24.5243 518.176 24.8387C518.109 25.1531 518.064 25.4675 518.041 25.782C518.019 26.0964 517.996 26.4332 517.996 26.7477V124.238V124.351Z" fill="#231815"/>
<path d="M808.603 158.195C808.603 158.195 808.671 158.083 808.693 158.038C808.716 157.993 808.761 157.926 808.783 157.858C808.806 157.791 808.828 157.746 808.851 157.679C808.873 157.611 808.896 157.544 808.896 157.499C808.896 157.432 808.918 157.364 808.918 157.297C808.918 157.229 808.918 157.162 808.918 157.095C808.918 157.027 808.918 156.96 808.918 156.893C808.918 156.825 808.918 156.758 808.896 156.69C808.896 156.623 808.873 156.556 808.851 156.511C808.828 156.466 808.806 156.399 808.783 156.331C808.761 156.264 808.738 156.219 808.693 156.151C808.671 156.107 808.626 156.039 808.603 155.994C808.558 155.949 808.536 155.882 808.491 155.837C808.446 155.792 808.401 155.747 808.356 155.702C808.311 155.657 808.266 155.612 808.221 155.568C808.176 155.523 808.131 155.5 808.063 155.455C808.018 155.41 807.951 155.388 807.906 155.365C807.861 155.343 807.793 155.298 807.726 155.276C807.658 155.253 807.613 155.231 807.546 155.208C807.478 155.208 807.411 155.163 807.366 155.163C807.298 155.163 807.231 155.141 807.163 155.141C807.096 155.141 807.028 155.141 806.961 155.141C806.893 155.141 806.826 155.141 806.758 155.141C806.691 155.141 806.623 155.141 806.556 155.163C806.488 155.186 806.421 155.186 806.376 155.208C806.308 155.208 806.263 155.253 806.196 155.276C806.128 155.298 806.083 155.321 806.016 155.365C805.971 155.388 805.903 155.433 805.858 155.455C805.813 155.5 805.746 155.523 805.701 155.568C805.656 155.612 805.611 155.657 805.566 155.702C805.521 155.747 805.476 155.792 805.431 155.837C805.386 155.882 805.363 155.927 805.318 155.994C805.296 156.039 805.274 156.062 805.251 156.107L770.761 214.767C770.559 215.104 770.154 215.329 769.704 215.329C769.704 215.329 769.704 215.329 769.681 215.329C769.254 215.329 768.849 215.127 768.624 214.79L732.717 159.318C732.537 159.071 732.357 158.824 732.177 158.577C731.975 158.352 731.772 158.105 731.57 157.903C731.367 157.701 731.12 157.477 730.895 157.297C730.67 157.095 730.422 156.915 730.152 156.758C729.905 156.578 729.635 156.421 729.365 156.286C729.095 156.129 728.825 155.994 728.533 155.882C728.24 155.77 727.948 155.657 727.655 155.568C727.363 155.478 727.048 155.388 726.733 155.343C726.418 155.276 726.103 155.231 725.788 155.208C725.473 155.186 725.135 155.163 724.82 155.163C724.505 155.163 724.168 155.163 723.853 155.208C723.538 155.253 723.223 155.298 722.908 155.343C722.593 155.41 722.301 155.478 721.986 155.568C721.693 155.657 721.401 155.77 721.108 155.882C720.816 155.994 720.546 156.129 720.276 156.286C720.006 156.443 719.736 156.601 719.488 156.758C719.241 156.938 718.993 157.117 718.746 157.297C718.498 157.499 718.273 157.701 718.071 157.903C717.868 158.105 717.643 158.352 717.463 158.577C717.261 158.824 717.081 159.049 716.924 159.318C716.744 159.565 716.586 159.835 716.451 160.104C716.316 160.374 716.159 160.643 716.046 160.935C715.934 161.227 715.821 161.519 715.731 161.811C715.641 162.103 715.551 162.417 715.506 162.732C715.439 163.046 715.394 163.361 715.371 163.675C715.349 163.989 715.326 164.326 715.326 164.641C715.326 164.955 715.326 165.292 715.371 165.606C715.394 165.921 715.461 166.235 715.506 166.55C715.574 166.864 715.641 167.156 715.731 167.47C715.821 167.762 715.934 168.054 716.046 168.346C716.159 168.638 716.294 168.908 716.451 169.177C716.609 169.447 716.766 169.716 716.924 169.963C717.059 170.143 717.193 170.323 717.328 170.502L750.828 220.808C751.481 221.797 751.841 222.964 751.841 224.155V265.298C751.841 265.635 751.841 265.949 751.886 266.264C751.931 266.578 751.976 266.893 752.021 267.207C752.088 267.521 752.155 267.813 752.245 268.128C752.335 268.42 752.448 268.712 752.56 269.004C752.673 269.296 752.808 269.565 752.965 269.835C753.123 270.104 753.28 270.374 753.438 270.621C753.618 270.868 753.798 271.115 753.978 271.362C754.18 271.586 754.383 271.833 754.585 272.036C754.788 272.238 755.035 272.462 755.26 272.642C755.485 272.844 755.733 273.024 756.003 273.181C756.273 273.338 756.52 273.518 756.79 273.652C757.06 273.787 757.33 273.944 757.623 274.057C757.915 274.169 758.208 274.281 758.5 274.371C758.792 274.461 759.107 274.551 759.422 274.596C759.737 274.663 760.052 274.708 760.367 274.73C760.682 274.753 761.02 274.775 761.335 274.775C761.65 274.775 761.987 274.775 762.302 274.73C762.617 274.686 762.932 274.641 763.247 274.596C763.562 274.528 763.855 274.461 764.169 274.371C764.462 274.281 764.754 274.169 765.047 274.057C765.339 273.944 765.609 273.81 765.879 273.652C766.149 273.495 766.419 273.338 766.667 273.181C766.914 273.001 767.162 272.822 767.409 272.642C767.657 272.44 767.882 272.238 768.084 272.036C768.287 271.833 768.512 271.586 768.692 271.362C768.894 271.115 769.074 270.89 769.232 270.621C769.412 270.374 769.569 270.104 769.704 269.835C769.839 269.565 769.996 269.296 770.109 269.004C770.221 268.712 770.334 268.42 770.424 268.128C770.514 267.836 770.604 267.521 770.649 267.207C770.716 266.893 770.761 266.578 770.784 266.264C770.806 265.949 770.829 265.612 770.829 265.298V223.953C770.829 222.875 771.121 221.819 771.661 220.898L808.536 158.105L808.603 158.195Z" fill="#231815"/>
<path d="M237.624 263.838C237.602 263.501 237.534 263.187 237.467 262.873C237.399 262.558 237.332 262.244 237.219 261.952C237.129 261.637 237.017 261.345 236.882 261.053L195.98 161.07C195.868 160.778 195.71 160.486 195.575 160.216C195.418 159.947 195.26 159.677 195.08 159.408C194.9 159.138 194.721 158.891 194.518 158.667C194.316 158.42 194.113 158.195 193.888 157.971C193.663 157.746 193.438 157.544 193.191 157.342C192.943 157.14 192.696 156.96 192.448 156.78C192.178 156.601 191.931 156.443 191.638 156.286C191.368 156.129 191.076 155.994 190.783 155.882C190.491 155.77 190.198 155.657 189.883 155.545C189.568 155.455 189.276 155.365 188.961 155.298C188.646 155.231 188.331 155.186 187.994 155.141C187.656 155.096 187.341 155.096 187.004 155.096C186.666 155.096 186.329 155.096 186.014 155.141C185.699 155.186 185.361 155.231 185.046 155.298C184.731 155.365 184.416 155.433 184.124 155.545C183.809 155.635 183.516 155.747 183.224 155.882C182.932 155.994 182.639 156.151 182.369 156.286C182.099 156.443 181.829 156.601 181.559 156.78C181.289 156.96 181.042 157.14 180.817 157.342C180.569 157.544 180.344 157.746 180.119 157.971C179.894 158.195 179.692 158.42 179.489 158.667C179.287 158.914 179.107 159.161 178.927 159.408C178.747 159.677 178.589 159.924 178.432 160.216C178.274 160.486 178.139 160.778 178.027 161.07L145.337 243.581L134.043 271.788C134.043 271.788 133.998 271.901 133.976 271.968C133.976 272.036 133.931 272.103 133.931 272.148C133.931 272.215 133.908 272.283 133.908 272.35C133.908 272.417 133.908 272.485 133.908 272.552C133.908 272.619 133.908 272.687 133.908 272.754C133.908 272.822 133.908 272.889 133.931 272.956C133.953 273.024 133.953 273.091 133.976 273.136C133.976 273.203 134.021 273.248 134.043 273.316C134.066 273.383 134.088 273.428 134.133 273.495C134.156 273.54 134.201 273.608 134.223 273.653C134.246 273.697 134.291 273.765 134.336 273.81C134.381 273.855 134.426 273.9 134.471 273.944C134.516 273.989 134.561 274.034 134.606 274.079C134.651 274.124 134.696 274.147 134.763 274.191C134.831 274.236 134.876 274.259 134.921 274.281C134.966 274.304 135.033 274.349 135.101 274.371C135.168 274.394 135.213 274.416 135.281 274.439C135.348 274.439 135.416 274.483 135.461 274.483C135.506 274.483 135.596 274.506 135.663 274.506C135.731 274.506 135.798 274.506 135.866 274.506C135.933 274.506 136.001 274.506 136.068 274.506C136.136 274.506 136.203 274.506 136.27 274.483C136.338 274.483 136.405 274.461 136.45 274.439C136.518 274.439 136.563 274.394 136.63 274.371C136.698 274.349 136.743 274.326 136.81 274.281C136.855 274.259 136.923 274.214 136.968 274.191C137.013 274.169 137.08 274.124 137.125 274.079C137.17 274.034 137.215 273.989 137.26 273.944C137.305 273.9 137.35 273.855 137.395 273.81C137.44 273.765 137.463 273.72 137.508 273.653C137.553 273.608 137.575 273.54 137.598 273.495C137.62 273.45 137.665 273.383 137.688 273.316C137.71 273.248 137.733 273.203 137.755 273.136C137.755 273.136 146.71 250.655 149.004 244.906H149.049C149.049 244.906 149.432 243.94 150.107 242.256C151.502 239.292 153.729 236.641 158.341 236.641H199.738C205.542 236.641 207.589 240.167 208.624 242.817L219.153 269.161H219.198C219.198 269.161 219.288 269.341 219.333 269.43C219.491 269.7 219.648 269.969 219.828 270.239C220.008 270.508 220.188 270.755 220.391 270.98C220.593 271.205 220.796 271.452 221.021 271.676C221.246 271.901 221.471 272.103 221.718 272.305C221.966 272.507 222.213 272.687 222.461 272.866C222.731 273.046 222.978 273.203 223.271 273.361C223.563 273.518 223.833 273.653 224.126 273.765C224.418 273.877 224.71 273.989 225.025 274.102C225.34 274.192 225.633 274.281 225.948 274.349C226.263 274.416 226.578 274.461 226.915 274.506C227.253 274.528 227.568 274.551 227.905 274.551C228.243 274.551 228.58 274.551 228.895 274.506C229.233 274.483 229.548 274.416 229.863 274.349C230.177 274.281 230.492 274.214 230.785 274.102C231.1 274.012 231.392 273.9 231.685 273.765C231.977 273.653 232.27 273.495 232.54 273.361C232.81 273.203 233.08 273.046 233.35 272.866C233.62 272.687 233.867 272.507 234.092 272.305C234.34 272.103 234.565 271.901 234.79 271.676C235.015 271.452 235.217 271.227 235.42 270.98C235.622 270.733 235.802 270.486 235.982 270.239C236.162 269.969 236.319 269.722 236.477 269.43C236.634 269.161 236.769 268.869 236.882 268.577C236.994 268.285 237.107 267.993 237.219 267.679C237.309 267.364 237.399 267.072 237.467 266.758C237.534 266.443 237.579 266.129 237.624 265.792C237.647 265.455 237.669 265.141 237.669 264.804C237.669 264.467 237.669 264.13 237.624 263.816V263.838ZM201.38 231.499C200.638 232.419 199.13 233.52 196.228 233.52H159.759C158.026 233.52 156.789 233.071 156.069 232.217C155.101 231.027 155.371 229.388 156.024 227.479C164.618 205.964 178.094 172.209 178.094 172.187C178.274 171.76 178.724 171.49 179.242 171.49C179.759 171.49 180.209 171.782 180.389 172.187L180.749 173.085L201.83 225.817C202.73 228.04 202.55 230.061 201.357 231.499H201.38Z" fill="#231815"/>
<path d="M700.995 156.848C700.995 156.848 700.995 156.713 700.973 156.646C700.973 156.578 700.95 156.511 700.928 156.466C700.928 156.399 700.883 156.354 700.86 156.286C700.838 156.219 700.815 156.174 700.77 156.107C700.748 156.062 700.703 155.994 700.68 155.949C700.658 155.904 700.613 155.837 700.568 155.792C700.523 155.747 700.478 155.702 700.433 155.657C700.388 155.612 700.343 155.568 700.298 155.523C700.253 155.478 700.208 155.455 700.14 155.41C700.095 155.365 700.028 155.343 699.983 155.321C699.938 155.298 699.87 155.253 699.803 155.231C699.735 155.208 699.69 155.186 699.623 155.163C699.555 155.163 699.488 155.118 699.443 155.118C699.375 155.118 699.308 155.096 699.24 155.096C699.173 155.096 699.105 155.096 699.038 155.096C698.97 155.096 698.903 155.096 698.835 155.096C698.768 155.096 698.7 155.096 698.633 155.118C698.565 155.118 698.498 155.141 698.453 155.163C698.385 155.163 698.34 155.208 698.273 155.231C698.205 155.253 698.16 155.276 698.093 155.321C698.025 155.365 697.98 155.388 697.935 155.41C697.89 155.455 697.823 155.478 697.778 155.523C697.733 155.568 697.688 155.612 697.643 155.657C697.598 155.702 697.553 155.747 697.508 155.792C697.463 155.837 697.44 155.882 697.395 155.949C697.35 156.017 697.328 156.062 697.305 156.107C697.283 156.151 697.238 156.219 697.215 156.286C697.193 156.354 697.17 156.399 697.148 156.466C697.148 156.533 697.103 156.601 697.103 156.646C697.103 156.713 697.08 156.78 697.08 156.848C697.08 156.915 697.08 156.982 697.08 157.05V254.9C697.08 255.394 696.698 255.821 696.158 255.955C696.045 255.978 695.933 256 695.843 256C695.416 256 695.011 255.798 694.763 255.461L630.284 159.363C630.104 159.116 629.924 158.869 629.744 158.622C629.564 158.375 629.339 158.15 629.136 157.948C628.934 157.746 628.686 157.521 628.461 157.342C628.236 157.14 627.989 156.96 627.719 156.803C627.471 156.623 627.201 156.466 626.931 156.331C626.661 156.174 626.391 156.039 626.099 155.927C625.806 155.815 625.514 155.702 625.221 155.612C624.929 155.523 624.614 155.433 624.299 155.388C623.984 155.321 623.669 155.276 623.354 155.253C623.039 155.231 622.702 155.208 622.387 155.208C622.072 155.208 621.734 155.208 621.419 155.253C621.104 155.276 620.789 155.343 620.474 155.388C620.159 155.455 619.867 155.523 619.552 155.612C619.26 155.702 618.967 155.815 618.675 155.927C618.382 156.039 618.112 156.174 617.842 156.331C617.572 156.488 617.302 156.646 617.055 156.803C616.807 156.982 616.56 157.162 616.312 157.342C616.087 157.544 615.84 157.746 615.637 157.948C615.435 158.15 615.21 158.397 615.03 158.622C614.827 158.846 614.647 159.094 614.49 159.363C614.31 159.61 614.152 159.88 614.017 160.149C613.882 160.419 613.725 160.688 613.612 160.98C613.5 161.272 613.388 161.564 613.298 161.856C613.208 162.148 613.118 162.462 613.073 162.777C613.005 163.091 612.96 163.405 612.938 163.72C612.915 164.034 612.893 164.371 612.893 164.686C612.893 164.731 612.893 164.798 612.893 164.843V272.552C612.893 272.552 612.893 272.687 612.893 272.754C612.893 272.822 612.893 272.889 612.915 272.956C612.915 273.024 612.938 273.091 612.96 273.136C612.96 273.203 613.005 273.248 613.028 273.316C613.05 273.383 613.073 273.428 613.118 273.495C613.14 273.54 613.185 273.608 613.208 273.653C613.253 273.697 613.275 273.765 613.32 273.81C613.365 273.855 613.41 273.9 613.455 273.944C613.5 273.989 613.545 274.034 613.59 274.079C613.635 274.124 613.68 274.147 613.747 274.192C613.792 274.236 613.86 274.259 613.905 274.281C613.95 274.304 614.017 274.349 614.085 274.371C614.152 274.394 614.197 274.416 614.265 274.439C614.332 274.439 614.4 274.483 614.445 274.483C614.512 274.483 614.58 274.506 614.647 274.506C614.715 274.506 614.782 274.506 614.85 274.506C614.917 274.506 614.985 274.506 615.052 274.506C615.12 274.506 615.187 274.506 615.255 274.483C615.322 274.483 615.39 274.461 615.435 274.439C615.502 274.439 615.547 274.394 615.615 274.371C615.682 274.349 615.727 274.326 615.795 274.281C615.84 274.259 615.907 274.214 615.952 274.192C615.997 274.147 616.065 274.124 616.11 274.079C616.155 274.034 616.2 273.989 616.245 273.944C616.29 273.9 616.335 273.855 616.38 273.81C616.425 273.765 616.447 273.72 616.492 273.653C616.537 273.585 616.56 273.54 616.582 273.495C616.605 273.45 616.65 273.383 616.672 273.316C616.695 273.248 616.717 273.203 616.74 273.136C616.74 273.069 616.785 273.001 616.785 272.956C616.785 272.889 616.807 272.822 616.807 272.754C616.807 272.687 616.807 272.619 616.807 272.552V175.084C616.807 174.612 617.167 174.185 617.707 174.073C617.82 174.051 617.91 174.028 618.022 174.028C618.45 174.028 618.855 174.23 619.08 174.545L683.626 270.306C683.806 270.553 683.986 270.8 684.166 271.047C684.346 271.294 684.571 271.519 684.774 271.721C684.976 271.923 685.224 272.148 685.449 272.327C685.674 272.53 685.921 272.709 686.191 272.866C686.439 273.046 686.709 273.203 686.979 273.338C687.249 273.495 687.519 273.63 687.811 273.742C688.104 273.855 688.396 273.967 688.689 274.057C688.981 274.147 689.296 274.236 689.611 274.281C689.926 274.349 690.241 274.394 690.556 274.416C690.871 274.439 691.208 274.461 691.523 274.461C691.838 274.461 692.176 274.461 692.491 274.416C692.806 274.371 693.121 274.326 693.436 274.281C693.751 274.214 694.043 274.147 694.358 274.057C694.651 273.967 694.943 273.855 695.235 273.742C695.528 273.63 695.798 273.495 696.068 273.338C696.338 273.181 696.608 273.024 696.855 272.866C697.103 272.687 697.35 272.507 697.598 272.327C697.845 272.125 698.07 271.923 698.273 271.721C698.475 271.519 698.7 271.272 698.88 271.047C699.06 270.823 699.263 270.576 699.42 270.306C699.6 270.059 699.758 269.79 699.893 269.52C700.028 269.251 700.185 268.981 700.298 268.689C700.41 268.397 700.523 268.105 700.613 267.813C700.703 267.521 700.793 267.207 700.838 266.893C700.905 266.578 700.95 266.264 700.973 265.949C700.995 265.635 701.018 265.298 701.018 264.984V157.05C701.018 157.05 701.018 156.915 701.018 156.848H700.995Z" fill="#231815"/>
</g>
<defs>
<clipPath id="clip0_981_21307">
<rect width="850" height="275" fill="white"/>
</clipPath>
</defs>
</svg>
